<svg width="169" height="169" viewBox="0 0 169 169" fill="none" xmlns="http://www.w3.org/2000/svg">
<rect x="0.5" y="0.5" width="168" height="168" rx="84" fill="#BEB4E4" stroke="url(#paint0_linear_3214_2916)"/>
<mask id="mask0_3214_2916" style="mask-type:alpha" maskUnits="userSpaceOnUse" x="0" y="0" width="169" height="169">
<rect width="169" height="169" rx="84.5" fill="#D9D9D9"/>
</mask>
<g mask="url(#mask0_3214_2916)">
</g>
<path d="M84.4992 73.2333C96.944 73.2333 107.032 63.1448 107.032 50.7C107.032 38.2551 96.944 28.1666 84.4992 28.1666C72.0543 28.1666 61.9658 38.2551 61.9658 50.7C61.9658 63.1448 72.0543 73.2333 84.4992 73.2333Z" fill="#644BBF"/>
<path d="M129.566 115.483C129.566 129.482 129.566 140.833 84.4993 140.833C39.4326 140.833 39.4326 129.482 39.4326 115.483C39.4326 101.484 59.6112 90.1333 84.4993 90.1333C109.387 90.1333 129.566 101.484 129.566 115.483Z" fill="#644BBF"/>
<circle cx="139" cy="144" r="15" fill="#0CAA03"/>
<defs>
<linearGradient id="paint0_linear_3214_2916" x1="141.96" y1="148.72" x2="28.73" y2="8.45" gradientUnits="userSpaceOnUse">
<stop offset="0.365337" stop-color="#201659"/>
<stop offset="0.798044" stop-color="#644BBF"/>
</linearGradient>
</defs>
</svg>
