<svg width="66" height="54" viewBox="0 0 66 54" fill="none" xmlns="http://www.w3.org/2000/svg">
<path d="M25 50C38.8071 50 50 38.8071 50 25C50 11.1929 38.8071 0 25 0C11.1929 0 -3.2484e-07 11.1929 -7.25551e-07 25C-1.12626e-06 38.8071 11.1929 50 25 50Z" fill="#1C1C2E"/>
<path d="M25 0.5C38.531 0.5 49.5 11.469 49.5 25C49.5 38.531 38.531 49.5 25 49.5C11.469 49.5 0.499999 38.531 0.499999 25C0.500002 11.469 11.469 0.500009 25 0.5Z" stroke="#644BBF" stroke-opacity="0.3"/>
<path d="M38.3849 53.015C50.9603 53.015 61.1546 42.8206 61.1546 30.2453C61.1546 17.6699 50.9603 7.47559 38.3849 7.47559C25.8096 7.47559 15.6152 17.6699 15.6152 30.2453C15.6152 42.8206 25.8096 53.015 38.3849 53.015Z" fill="#E96745"/>
<path opacity="0.3" d="M38.3849 53.015C50.9603 53.015 61.1546 42.8206 61.1546 30.2453C61.1546 17.6699 50.9603 7.47559 38.3849 7.47559C25.8096 7.47559 15.6152 17.6699 15.6152 30.2453C15.6152 42.8206 25.8096 53.015 38.3849 53.015Z" fill="black"/>
<path d="M37.7697 51.5573C50.345 51.5573 60.5394 41.363 60.5394 28.7876C60.5394 16.2123 50.345 6.01794 37.7697 6.01794C25.1943 6.01794 15 16.2123 15 28.7876C15 41.363 25.1943 51.5573 37.7697 51.5573Z" fill="#E96745"/>
<path d="M37.7688 46.4996C47.551 46.4996 55.4811 38.5696 55.4811 28.7874C55.4811 19.0052 47.551 11.0752 37.7688 11.0752C27.9867 11.0752 20.0566 19.0052 20.0566 28.7874C20.0566 38.5696 27.9867 46.4996 37.7688 46.4996Z" fill="#FBE6E0"/>
<path d="M46.581 37.6022C51.4478 32.7354 51.4478 24.8447 46.581 19.9779C41.7142 15.1111 33.8235 15.1111 28.9567 19.9779C24.0899 24.8447 24.0899 32.7354 28.9567 37.6022C33.8235 42.469 41.7142 42.469 46.581 37.6022Z" fill="#E96745"/>
<path d="M42.4185 33.4393C44.9862 30.8716 44.9862 26.7085 42.4185 24.1408C39.8507 21.5731 35.6877 21.5731 33.12 24.1408C30.5522 26.7085 30.5522 30.8716 33.12 33.4393C35.6877 36.007 39.8507 36.007 42.4185 33.4393Z" fill="#FBE6E0"/>
<path d="M55.3879 10.3466L54.7695 5.48785L59.7134 0.196899L60.0699 5.44052L55.3879 10.3466Z" fill="#464F7E"/>
<path d="M65.9996 6.4817L60.9832 6.07471L55.9541 10.9113L60.9832 11.4477L65.9996 6.4817Z" fill="#464F7E"/>
<path opacity="0.3" d="M37.7695 29.1724L56.463 15.7857C55.7469 14.7495 54.9538 13.7686 54.0904 12.8516L38.0787 28.3332L37.7695 29.1724Z" fill="black"/>
<path d="M60.8097 4.42778L58.4624 6.8035L52.8307 12.5109L46.0443 19.3888L40.1508 25.3613C39.2043 26.3267 38.1978 27.2543 37.2797 28.2702L37.2387 28.3112C36.6834 28.8728 37.5542 29.7373 38.1032 29.1757L40.4505 26.7999L46.0916 21.0925L52.8781 14.2146L58.7653 8.25481C59.7118 7.28937 60.7151 6.3618 61.6332 5.34904L61.6742 5.30487C62.2295 4.74328 61.3587 3.87881 60.8097 4.4404V4.42778Z" fill="#162059"/>
</svg>
