<svg width="66" height="51" viewBox="0 0 66 51" fill="none" xmlns="http://www.w3.org/2000/svg">
<path d="M25.5627 50.1254C39.4045 50.1254 50.6254 38.9045 50.6254 25.0627C50.6254 11.221 39.4045 0 25.5627 0C11.721 0 0.5 11.221 0.499999 25.0627C0.499999 38.9045 11.721 50.1254 25.5627 50.1254Z" fill="#1C1C2E"/>
<path d="M25.5625 0.5C39.128 0.5 50.1249 11.497 50.125 25.0625C50.125 38.6281 39.1281 49.625 25.5625 49.625C11.997 49.6249 0.999999 38.628 0.999999 25.0625C1.00012 11.4971 11.9971 0.500121 25.5625 0.5Z" stroke="#644BBF" stroke-opacity="0.3"/>
<path d="M64.1159 27.6002L61.58 16.0522C60.9993 13.16 59.3241 10.6037 56.9039 8.91702C54.4838 7.2303 51.5057 6.5434 48.5912 6.99969L22.1661 11.5316C19.2663 12.0745 16.6876 13.7148 14.9667 16.111C13.2459 18.5073 12.5154 21.4749 12.9274 24.3962L14.3843 36.1292C14.3843 36.1292 15.2075 44.0663 22.2795 42.8535C22.2795 42.8535 25.6946 43.1355 27.5494 39.0255L30.9794 32.3113L39.065 30.7858L47.2054 29.5286L52.6765 34.7162C55.789 37.9396 58.9207 36.5695 58.9207 36.5695C66.0349 35.3494 64.1159 27.6002 64.1159 27.6002Z" fill="#A4B619"/>
<path d="M21.9087 18.2225L22.2455 20.1865C22.2635 20.2953 22.3085 20.3979 22.3765 20.4848C22.4445 20.5717 22.5332 20.6401 22.6345 20.6838L24.4764 21.6087L25.9498 20.0805C26.0152 20.0034 26.063 19.9129 26.0897 19.8154C26.1164 19.7179 26.1215 19.6157 26.1046 19.516L25.7677 17.552C25.7374 17.3754 25.6382 17.2181 25.4919 17.1146C25.3456 17.0112 25.1643 16.97 24.9877 17.0003L22.4589 17.434C22.3708 17.4491 22.2865 17.4816 22.211 17.5295C22.1354 17.5775 22.0702 17.6399 22.019 17.7133C21.9678 17.7866 21.9317 17.8694 21.9128 17.9568C21.8938 18.0443 21.8924 18.1346 21.9087 18.2225Z" fill="white"/>
<path d="M27.5436 27.8509L27.2082 25.8954C27.1899 25.7854 27.1447 25.6817 27.0766 25.5934C27.0085 25.5052 26.9196 25.4352 26.8178 25.3897L24.9674 24.4662L23.4956 26.0028C23.4301 26.0799 23.3823 26.1704 23.3556 26.2679C23.3288 26.3654 23.3238 26.4676 23.3407 26.5673L23.6761 28.5229C23.6901 28.6112 23.7215 28.6959 23.7685 28.772C23.8155 28.8481 23.8771 28.9142 23.9498 28.9663C24.0225 29.0184 24.1049 29.0555 24.192 29.0756C24.2792 29.0956 24.3695 29.0981 24.4577 29.083L26.9864 28.6493C27.0762 28.6351 27.1622 28.603 27.2392 28.5547C27.3163 28.5065 27.3828 28.4432 27.4349 28.3687C27.4869 28.2941 27.5233 28.2099 27.542 28.1209C27.5607 28.0319 27.5612 27.9401 27.5436 27.8509Z" fill="white"/>
<path d="M19.6567 26.0363L21.6207 25.6994C21.7295 25.6814 21.8321 25.6364 21.919 25.5684C22.0059 25.5005 22.0743 25.4117 22.118 25.3104L23.0429 23.4685L21.5063 21.9966C21.4309 21.9311 21.3419 21.8831 21.2458 21.8561C21.1496 21.829 21.0487 21.8237 20.9502 21.8404L18.9862 22.1772C18.8096 22.2075 18.6523 22.3067 18.5488 22.453C18.4453 22.5993 18.4042 22.7807 18.4345 22.9573L18.8682 25.486C18.8833 25.5742 18.9158 25.6585 18.9637 25.734C19.0116 25.8095 19.0741 25.8747 19.1475 25.9259C19.2208 25.9771 19.3036 26.0132 19.391 26.0322C19.4784 26.0511 19.5688 26.0525 19.6567 26.0363Z" fill="white"/>
<path d="M29.5053 20.3295L27.5498 20.6648C27.4398 20.6832 27.3361 20.7284 27.2479 20.7965C27.1596 20.8646 27.0896 20.9535 27.0441 21.0553L26.1206 22.9057L27.6572 24.3775C27.7326 24.4431 27.8215 24.4911 27.9177 24.5181C28.0139 24.5451 28.1148 24.5505 28.2133 24.5338L30.1773 24.197C30.2652 24.1831 30.3495 24.1517 30.4251 24.1047C30.5008 24.0576 30.5662 23.996 30.6177 23.9233C30.6691 23.8506 30.7054 23.7683 30.7245 23.6813C30.7437 23.5944 30.7452 23.5044 30.729 23.4169L30.2953 20.8881C30.2812 20.7991 30.2494 20.7137 30.2018 20.6372C30.1542 20.5606 30.0917 20.4943 30.0181 20.4422C29.9445 20.3902 29.8612 20.3534 29.7731 20.334C29.6851 20.3146 29.594 20.3131 29.5053 20.3295Z" fill="white"/>
<path d="M47.188 13.8872L47.5248 15.8512C47.5428 15.96 47.5878 16.0626 47.6558 16.1495C47.7238 16.2364 47.8125 16.3048 47.9138 16.3485L49.7557 17.2734L51.2291 15.7452C51.2945 15.6681 51.3423 15.5776 51.369 15.4801C51.3958 15.3826 51.4008 15.2804 51.3839 15.1807L51.0471 13.2167C51.0168 13.0401 50.9176 12.8827 50.7713 12.7793C50.625 12.6758 50.4436 12.6347 50.2669 12.665L47.7382 13.0987C47.6501 13.1138 47.5658 13.1463 47.4903 13.1942C47.4147 13.2421 47.3495 13.3046 47.2983 13.378C47.2471 13.4513 47.211 13.5341 47.1921 13.6215C47.1731 13.7089 47.1717 13.7992 47.188 13.8872Z" fill="white"/>
<path d="M52.82 23.5156L52.4846 21.56C52.4663 21.4501 52.4211 21.3464 52.353 21.2581C52.2849 21.1699 52.196 21.0999 52.0942 21.0543L50.2438 20.1309L48.772 21.6675C48.7049 21.7436 48.6562 21.834 48.6293 21.9318C48.6025 22.0297 48.5983 22.1323 48.6171 22.232L48.9525 24.1876C48.9665 24.2759 48.9979 24.3606 49.0449 24.4367C49.0919 24.5128 49.1536 24.5788 49.2263 24.6309C49.299 24.683 49.3813 24.7202 49.4684 24.7402C49.5556 24.7603 49.6459 24.7628 49.7341 24.7477L52.2628 24.314C52.3526 24.2998 52.4386 24.2676 52.5157 24.2194C52.5927 24.1712 52.6592 24.1079 52.7113 24.0333C52.7633 23.9588 52.7998 23.8745 52.8184 23.7856C52.8371 23.6966 52.8377 23.6048 52.82 23.5156Z" fill="white"/>
<path d="M44.936 21.7012L46.8916 21.3658C47.0015 21.3475 47.1053 21.3023 47.1935 21.2341C47.2817 21.166 47.3517 21.0771 47.3973 20.9754L48.3222 19.1334L46.7856 17.6615C46.7102 17.596 46.6213 17.548 46.5251 17.521C46.4289 17.494 46.328 17.4886 46.2295 17.5053L44.2655 17.8421C44.0889 17.8724 43.9316 17.9716 43.8281 18.1179C43.7246 18.2642 43.6835 18.4456 43.7138 18.6222L44.1475 21.1509C44.1626 21.2391 44.1951 21.3234 44.243 21.3989C44.291 21.4744 44.3534 21.5396 44.4268 21.5908C44.5001 21.642 44.5829 21.6781 44.6703 21.6971C44.7578 21.716 44.8481 21.7174 44.936 21.7012Z" fill="white"/>
<path d="M54.7856 15.9941L52.83 16.3295C52.7201 16.3478 52.6163 16.3931 52.5281 16.4612C52.4399 16.5293 52.3699 16.6182 52.3243 16.7199L51.4009 18.5703L52.9375 20.0422C53.0128 20.1077 53.1018 20.1557 53.198 20.1828C53.2941 20.2098 53.3951 20.2151 53.4936 20.1985L55.4575 19.8616C55.6341 19.8314 55.7915 19.7321 55.895 19.5858C55.9984 19.4395 56.0395 19.2581 56.0092 19.0815L55.5756 16.5528C55.5615 16.4638 55.5297 16.3784 55.482 16.3018C55.4344 16.2253 55.372 16.159 55.2984 16.1069C55.2247 16.0548 55.1414 16.018 55.0534 15.9987C54.9653 15.9793 54.8742 15.9778 54.7856 15.9941Z" fill="white"/>
</svg>
