<svg width="946" height="877" viewBox="0 0 946 877" fill="none" xmlns="http://www.w3.org/2000/svg">
<g clip-path="url(#clip0_2676_511)">
<path d="M520.315 852.555L286.193 717.446L711.878 471.697L946 606.858L520.315 852.555Z" fill="#CBE220"/>
<g opacity="0.8">
<path d="M520.315 852.555L286.193 717.446L711.878 471.696L946 606.858L520.315 852.555Z" fill="#F5F9D2"/>
</g>
<path d="M286.193 717.394V741.967L520.315 877.146V852.503L286.193 717.394Z" fill="#CBE220"/>
<g opacity="0.5">
<path d="M286.193 717.394V741.967L520.315 877.146V852.502L286.193 717.394Z" fill="#F5F9D2"/>
</g>
<path d="M520.314 877.146L945.999 631.449V606.805L520.314 852.503V877.146Z" fill="#CBE220"/>
<g opacity="0.65">
<path d="M520.314 877.146L945.999 631.449V606.805L520.314 852.503V877.146Z" fill="#EAF3A6"/>
</g>
<path opacity="0.15" d="M499.45 688.482C499.45 688.289 499.45 688.096 499.45 687.903V687.797C498.871 672.358 478.706 657.937 461.615 655.039C444.261 652.141 434.021 664.577 434.021 672.604C433.635 678.4 439.115 685.145 449.636 690.415C465.813 698.512 486.066 700.953 494.883 695.86C496.24 695.172 497.38 694.122 498.177 692.826C498.974 691.53 499.396 690.039 499.397 688.518L499.45 688.482Z" fill="#1C1C2E"/>
<path d="M498.463 684.969C498.463 684.776 498.463 684.583 498.463 684.407V684.319C497.919 669.583 478.685 655.812 462.385 653.089C446.085 650.367 436.038 662.17 436.038 669.758C435.669 675.274 440.903 681.702 450.933 686.726C466.355 694.454 485.659 696.773 494.072 691.995C495.369 691.336 496.457 690.331 497.217 689.091C497.976 687.85 498.378 686.424 498.375 684.969H498.463Z" fill="#464F7E"/>
<path d="M488.223 665.841C472.748 669.618 465.213 682.949 462.895 691.451C463.457 691.626 464.019 691.767 464.651 691.925C466.899 683.652 474.329 670.478 489.804 667.334C489.259 666.772 488.75 666.298 488.223 665.841Z" fill="#CBE220"/>
<path d="M496.021 690.538C496.017 685.841 494.564 681.259 491.861 677.418C489.157 673.577 485.335 670.663 480.916 669.073L480.318 670.724C484.657 672.197 488.386 675.062 490.928 678.874C493.469 682.686 494.679 687.231 494.37 691.802C494.966 691.443 495.52 691.019 496.021 690.538Z" fill="#CBE220"/>
<path opacity="0.15" d="M492.561 646.502L540.425 674.237C541.239 674.66 542.143 674.881 543.06 674.881C543.977 674.881 544.881 674.66 545.695 674.237L683.052 595.037C683.368 594.933 683.644 594.732 683.839 594.462C684.034 594.192 684.139 593.868 684.139 593.535C684.139 593.202 684.034 592.878 683.839 592.608C683.644 592.338 683.368 592.137 683.052 592.033L635.188 564.281C634.373 563.86 633.47 563.641 632.553 563.641C631.636 563.641 630.733 563.86 629.918 564.281L492.561 643.463C492.241 643.568 491.961 643.771 491.763 644.044C491.566 644.317 491.459 644.645 491.459 644.982C491.459 645.32 491.566 645.648 491.763 645.921C491.961 646.194 492.241 646.397 492.561 646.502Z" fill="#1C1C2E"/>
<path d="M677.399 587.958C677.374 587.64 677.263 587.334 677.077 587.074C676.891 586.814 676.638 586.61 676.345 586.483L633.522 561.769C632.734 561.362 631.861 561.15 630.975 561.15C630.089 561.15 629.215 561.362 628.428 561.769L497.78 637.298C497.487 637.425 497.234 637.629 497.048 637.889C496.863 638.149 496.751 638.455 496.727 638.773V643.252C496.751 643.571 496.863 643.877 497.048 644.137C497.234 644.397 497.487 644.601 497.78 644.728L540.568 669.442C541.36 669.844 542.236 670.054 543.124 670.054C544.012 670.054 544.888 669.844 545.68 669.442L676.345 594.018C676.638 593.891 676.891 593.687 677.077 593.427C677.263 593.167 677.374 592.861 677.399 592.543V587.958Z" fill="#2E386B"/>
<path d="M540.565 664.857L497.777 640.266C497.471 640.159 497.206 639.96 497.019 639.695C496.831 639.431 496.73 639.115 496.73 638.791C496.73 638.467 496.831 638.151 497.019 637.886C497.206 637.622 497.471 637.422 497.777 637.315L628.425 561.786C629.212 561.38 630.085 561.168 630.971 561.168C631.858 561.168 632.731 561.38 633.518 561.786L676.342 586.5C676.647 586.607 676.912 586.807 677.1 587.071C677.287 587.336 677.388 587.652 677.388 587.976C677.388 588.3 677.287 588.616 677.1 588.88C676.912 589.145 676.647 589.344 676.342 589.451L545.677 664.875C544.882 665.27 544.006 665.475 543.119 665.472C542.231 665.469 541.357 665.258 540.565 664.857Z" fill="#464F7E"/>
<path d="M542.957 665.472V670.056C542.126 670.054 541.308 669.855 540.568 669.477L497.798 644.763C497.501 644.639 497.245 644.435 497.056 644.175C496.867 643.915 496.753 643.608 496.727 643.287V638.773C496.753 639.094 496.867 639.401 497.056 639.661C497.245 639.921 497.501 640.124 497.798 640.249L540.568 664.839C541.303 665.237 542.122 665.453 542.957 665.472Z" fill="#2E386B"/>
<path d="M630.657 565.668H630.744L634.995 568.11L629.234 571.43L624.86 569.041L630.604 565.721L630.657 565.668ZM637.296 569.498H637.384L641.617 571.939L637.103 574.539L632.729 572.08L637.243 569.48L637.296 569.498ZM622.629 570.305H622.752L626.986 572.747L622.471 575.347L618.098 572.888L622.612 570.288L622.629 570.305ZM643.918 573.327H644.023L648.257 575.768L640.967 579.984L636.576 577.525L643.865 573.309L643.918 573.327ZM630.499 573.414L634.732 575.856L631.219 577.929L626.845 575.47L630.358 573.397L630.499 573.414ZM615.832 574.222H615.92L620.153 576.664L615.726 579.299L611.335 576.84L615.726 574.31L615.832 574.222ZM624.614 576.805H624.702L628.935 579.246L625.422 581.319L620.996 578.877L624.509 576.805H624.614ZM650.54 577.156H650.628L654.896 579.58L649.1 582.935L644.726 580.476L650.47 577.156H650.54ZM609.017 578.157H609.105L613.355 580.598L580.72 599.428L576.346 596.969L608.964 578.139L609.017 578.157ZM634.328 578.86H634.433L638.666 581.301L635.153 583.374L630.762 580.915L634.275 578.842L634.328 578.86ZM618.748 580.195L622.981 582.636L619.468 584.709L615.094 582.25L618.607 580.177L618.748 580.195ZM657.18 580.985H657.267L661.5 583.426L657.988 585.499L653.614 583.04L657.127 580.967L657.18 580.985ZM642.513 581.793H642.601L646.834 584.234L643.321 586.307L638.947 583.848L642.46 581.775L642.513 581.793ZM628.461 582.25H628.566L632.8 584.691L629.287 586.764L624.895 584.287L628.408 582.232L628.461 582.25ZM612.863 583.585H612.969L617.202 586.026L613.689 588.099L609.298 585.64L612.811 583.567L612.863 583.585ZM651.295 584.375H651.401L655.634 586.816L652.121 588.889L647.747 586.43L651.26 584.357L651.295 584.375ZM636.646 585.183H636.804L641.037 587.624L637.524 589.697L633.151 587.238L636.664 585.165L636.646 585.183ZM622.594 585.622H622.752L627.003 588.081L623.35 590.119L618.976 587.642L622.489 585.587L622.594 585.622ZM665.224 585.622H665.312L669.563 588.064L665.049 590.663L660.657 588.204L665.172 585.604L665.224 585.622ZM606.997 586.957H607.102L611.335 589.398L607.822 591.471L603.431 589.012L606.944 586.939L606.997 586.957ZM645.429 587.747H645.587L649.82 590.189L646.307 592.262L641.916 589.802L645.429 587.73V587.747ZM630.762 588.555H630.867L635.101 590.997L631.588 593.07L627.196 590.61L630.709 588.538L630.762 588.555ZM616.71 588.994H616.798L621.031 591.454L617.483 593.632L613.109 591.173L616.622 589.117L616.71 588.994ZM601.112 590.347H601.218L605.451 592.788L601.938 594.861L597.547 592.402L601.06 590.329L601.112 590.347ZM655.862 591.014H655.95L660.183 593.456L656.67 595.529L652.297 593.07L655.809 590.997L655.862 591.014ZM639.544 591.137H639.65L643.883 593.579L640.37 595.652L635.979 593.192L639.492 591.12L639.544 591.137ZM624.878 591.945H624.983L629.216 594.387L625.703 596.46L621.312 594L624.825 591.928L624.878 591.945ZM610.826 592.385H610.914L615.147 594.844L611.634 596.899L607.26 594.44L610.773 592.385H610.826ZM595.228 593.737L599.479 596.179L595.878 598.251L591.505 595.792L595.018 593.719L595.228 593.737ZM649.96 594.404H650.066L654.299 596.846L650.856 598.901L646.483 596.442L649.996 594.369L649.96 594.404ZM633.66 594.51H633.748L637.999 596.969L634.486 599.042L630.112 596.565L633.625 594.51H633.66ZM618.994 595.335H619.239L623.473 597.794L619.96 599.867L615.568 597.391L619.081 595.335H618.994ZM604.942 595.775H605.188L609.421 598.216L605.908 600.289L601.517 597.83L605.029 595.757L604.942 595.775ZM589.379 597.145L593.63 599.586L590.029 601.659L585.655 599.2L589.168 597.127L589.379 597.145ZM644.111 597.812H644.217L648.45 600.254L644.937 602.326L640.546 599.867L644.059 597.794L644.111 597.812ZM627.811 597.935H628.022L632.273 600.394L628.584 602.414L624.21 599.937L627.723 597.882L627.811 597.935ZM574.098 598.304H574.186L578.436 600.745L573.922 603.345L569.531 600.886L574.045 598.286L574.098 598.304ZM613.144 598.725H613.232L617.483 601.184L613.97 603.257L609.579 600.781L613.092 598.725H613.144ZM599.093 599.182H599.198L603.431 601.624L599.918 603.696L595.527 601.237L599.04 599.165L599.093 599.182ZM583.513 600.535L587.746 602.976L584.233 605.049L579.859 602.572L583.372 600.517L583.513 600.535ZM638.245 601.202H638.35L642.583 603.644L639.07 605.716L634.679 603.24L638.192 601.184L638.245 601.202ZM621.944 601.307H622.032L626.265 603.767L622.752 605.927L618.379 603.468L621.892 601.413L621.944 601.307ZM607.278 602.115H607.366L611.616 604.575L608.015 606.63L603.642 604.171L607.155 602.115H607.278ZM567.3 602.221H567.406L571.639 604.662L567.125 607.279L562.733 604.82L567.247 602.203L567.3 602.221ZM593.226 602.572H593.331L597.564 605.014L594.051 607.086L589.66 604.627L593.173 602.555L593.226 602.572ZM577.646 603.907L581.879 606.366L578.366 608.421L573.992 605.962L577.505 603.907H577.646ZM616.078 604.697L620.311 607.157L616.798 609.212L612.424 606.753L615.937 604.697H616.078ZM601.411 605.505L605.662 607.947L602.061 610.02L597.687 607.561L601.2 605.488L601.411 605.505ZM587.359 605.962L591.61 608.404L588.097 610.476L583.706 608.017L587.219 605.945L587.359 605.962ZM629.831 606.05H629.919L634.152 608.509L630.639 610.582L626.265 608.123L629.778 606.068L629.831 606.05ZM560.503 606.155H560.608L564.841 608.597L560.362 611.196L555.971 608.737L560.485 606.138L560.503 606.155ZM571.779 607.297H571.867L576.1 609.756L572.587 611.811L568.196 609.352L571.709 607.297H571.779ZM610.211 608.088H610.299L614.532 610.529L611.019 612.602L606.645 610.143L610.158 608.07L610.211 608.088ZM595.544 608.895H595.632L599.865 611.337L596.352 613.41L591.979 610.951L595.492 608.878L595.544 608.895ZM581.493 609.352H581.58L585.831 611.794L582.353 613.884L577.98 611.425L581.493 609.352ZM623.964 609.44H624.052L628.285 611.899L624.772 613.954L620.399 611.495L623.912 609.44H623.964ZM553.705 610.072H553.81L558.043 612.514L552.3 615.834L547.909 613.374L553.652 610.055L553.705 610.072ZM565.895 610.687H566L570.233 613.129L558.922 619.663L554.548 617.204L565.842 610.67L565.895 610.687ZM604.344 611.478H604.432L608.665 613.919L605.152 615.992L600.761 613.533L604.274 611.46L604.344 611.478ZM589.66 612.285H589.766L593.999 614.727L590.486 616.8L586.112 614.341L589.625 612.268L589.66 612.285ZM575.608 612.742H575.696L579.947 615.184L576.434 617.256L572.06 614.797L575.573 612.725L575.608 612.742ZM618.063 612.83H618.168L622.401 615.272L618.888 617.344L614.514 614.885L618.027 612.812L618.063 612.83ZM598.443 614.868H598.548L602.781 617.309L599.268 619.382L594.877 616.923L598.39 614.85L598.443 614.868ZM544.431 615.412H544.519L548.752 617.871L545.239 619.944L540.865 617.467L544.378 615.412H544.431ZM583.776 615.675H583.881L588.115 618.117L584.602 620.19L580.228 617.731L583.741 615.658L583.776 615.675ZM569.812 616.132L574.045 618.574L570.778 620.471C570.668 620.528 570.576 620.613 570.511 620.718C570.446 620.824 570.411 620.944 570.409 621.068C570.413 621.195 570.451 621.32 570.519 621.428C570.587 621.536 570.682 621.624 570.796 621.683L576.364 624.897L572.148 627.321L561.275 621.05L569.812 616.132ZM612.178 616.22H612.284L616.517 618.662L613.004 620.734L608.701 618.222L612.214 616.15L612.178 616.22ZM592.629 618.222H592.734L596.967 620.664L593.454 622.737L589.063 620.278L592.576 618.205L592.629 618.222ZM538.599 618.767H538.705L542.938 621.226L539.425 623.299L534.928 620.875L538.441 618.82L538.599 618.767ZM577.962 619.03H578.067L582.301 621.472L578.788 623.545L574.396 621.085L577.909 619.013L577.962 619.03ZM603.835 621.05H603.923L608.174 623.492L604.661 625.565L600.287 623.105L603.8 621.033L603.835 621.05ZM586.762 621.612H586.867L591.101 624.054L587.588 626.127L583.214 623.668L586.727 621.595L586.762 621.612ZM532.733 622.157H532.838L537.071 624.616L533.558 626.671L529.167 624.212L532.68 622.157H532.733ZM545.239 622.596H545.344L549.577 625.055L546.064 627.128L541.673 624.651L545.186 622.596H545.239ZM597.933 624.44H598.021L602.254 626.882L598.741 628.955L594.368 626.495L597.881 624.423L597.933 624.44ZM580.86 625.002H580.948L585.199 627.444L578.84 631.168L574.467 628.709L580.825 625.038L580.86 625.002ZM525.601 626.267L529.852 628.709L520.384 634.171L516.011 631.712L525.461 626.25L525.601 626.267ZM564.349 626.882L568.582 629.323L565.069 631.396L560.696 628.937L564.209 626.864L564.349 626.882ZM592.067 627.83L596.3 630.272L592.787 632.345L588.413 629.886L591.926 627.813L592.067 627.83ZM532.241 630.096L536.474 632.538L532.961 634.61L528.57 632.151L532.083 630.079L532.241 630.096ZM558.465 630.272H558.57L562.804 632.731L559.291 634.804L554.899 632.327L558.412 630.272H558.465ZM570.971 630.711H571.077L575.31 633.153L571.797 635.225L567.406 632.766L570.919 630.693L570.971 630.711ZM586.182 631.22H586.288L590.521 633.662L587.008 635.735L582.634 633.276L586.147 631.203L586.182 631.22ZM513.868 632.977H513.956L518.189 635.418L514.676 637.491L510.302 635.032L513.815 632.959L513.868 632.977ZM526.356 633.416H526.462L530.695 635.858L527.182 637.93L522.791 635.471L526.304 633.398L526.356 633.416ZM552.598 633.574H552.704L556.937 636.033L553.424 638.106L548.98 635.787L552.493 633.732L552.598 633.574ZM538.863 633.855H538.968L543.201 636.297L539.688 638.369L535.297 635.91L538.81 633.838L538.863 633.855ZM565.105 634.031H565.21L569.443 636.472L565.93 638.545L561.539 636.068L565.052 634.013L565.105 634.031ZM579.016 635.278H579.121L583.354 637.719L579.841 639.792L575.468 637.333L578.981 635.26L579.016 635.278ZM508.001 636.367H508.089L518.962 642.638L515.449 644.71L504.418 638.422L507.931 636.349L508.001 636.367ZM520.49 636.806H520.595L524.828 639.248L521.315 641.32L516.924 638.861L520.437 636.788L520.49 636.806ZM532.996 637.245H533.172L537.422 639.687L533.909 641.759L529.518 639.3L533.031 637.228L532.996 637.245ZM559.238 637.403L563.489 639.862L559.888 641.935L555.514 639.458L559.027 637.403H559.238ZM545.502 637.684H545.59L549.841 640.126L546.328 642.198L541.954 639.739L545.467 637.667L545.502 637.684ZM573.149 638.668H573.255L577.488 641.109L573.975 643.182L569.584 640.723L573.097 638.65L573.149 638.668ZM527.129 640.635L531.38 643.077L527.902 645.272L523.529 642.813L527.041 640.741L527.129 640.635ZM539.635 641.074H539.723L543.956 643.516L540.443 645.588L536.07 643.129L539.583 641.057L539.635 641.074ZM552.142 641.513H552.23L556.463 643.955L552.95 646.028L548.558 643.568L552.071 641.496L552.142 641.513ZM567.283 642.058H567.388L571.621 644.499L568.108 646.572L563.717 644.113L567.23 642.04L567.283 642.058ZM521.263 644.025L532.135 650.296L528.622 652.368L517.609 646.08L521.122 644.008L521.263 644.025ZM533.769 644.464L538.002 646.906L534.489 648.979L530.115 646.519L533.628 644.447L533.769 644.464ZM546.257 644.903H546.363L550.596 647.345L547.083 649.418L542.692 646.958L546.205 644.886L546.257 644.903ZM561.89 647.152L563.734 648.188L560.222 650.261L558.254 649.189L561.767 647.134L561.89 647.152ZM540.391 648.293H540.496L544.729 650.735L541.216 652.808L536.825 650.349L540.338 648.276L540.391 648.293ZM556.024 650.542H556.111L557.868 651.578L554.355 653.651L552.388 652.579L555.901 650.524L556.024 650.542ZM534.524 651.683H534.612L538.863 654.125L535.35 656.198L530.958 653.739L534.471 651.666L534.524 651.683ZM550.139 653.914H550.245L552.001 654.968L548.488 657.023L546.521 655.969L550.034 653.914H550.139ZM544.273 657.304H544.378L546.135 658.341L542.622 660.413L540.654 659.359L544.167 657.304H544.273Z" fill="#CBE220"/>
<g style="mix-blend-mode:color-dodge" opacity="0.47">
<path d="M510.811 -457L825.5 401.5L602 691L-501.5 245L510.811 -457Z" fill="url(#paint0_linear_2676_511)"/>
</g>
<path opacity="0.15" d="M839.836 617.959L830.193 612.584C828.52 611.676 826.651 611.189 824.747 611.165C822.844 611.14 820.963 611.579 819.267 612.444L771.263 640.161L764.957 636.472C763.451 635.702 761.783 635.3 760.091 635.3C758.399 635.3 756.732 635.702 755.226 636.472L696.928 670.355C694.223 671.918 694.223 674.43 696.928 675.993L703.076 679.506L633.695 719.554C630.656 721.311 630.656 724.174 633.695 725.93L643.355 731.498C645.062 732.364 646.948 732.815 648.862 732.815C650.775 732.815 652.662 732.364 654.368 731.498L723.75 691.45C725.26 692.217 726.93 692.617 728.624 692.617C730.318 692.617 731.988 692.217 733.498 691.45L791.567 657.708C794.185 656.198 794.237 653.756 791.778 652.193L839.748 624.493C842.787 622.719 842.822 619.803 839.836 617.959Z" fill="#1C1C2E"/>
<path d="M827.646 570.411L841.189 409.517C841.308 407.161 840.817 404.815 839.765 402.704C838.713 400.594 837.134 398.79 835.181 397.467C833.023 396.419 830.648 395.895 828.249 395.938C825.85 395.98 823.495 396.589 821.375 397.713L619.239 514.467C617.136 515.84 615.351 517.647 614.006 519.768C612.66 521.889 611.786 524.274 611.44 526.762L597.898 687.656C597.779 690.012 598.269 692.358 599.321 694.469C600.374 696.579 601.952 698.383 603.905 699.706C606.065 700.749 608.439 701.27 610.837 701.227C613.235 701.184 615.59 700.579 617.711 699.46L819.918 582.706C822.008 581.326 823.779 579.515 825.112 577.395C826.445 575.274 827.309 572.893 827.646 570.411Z" fill="#2E386B"/>
<path d="M827.647 570.411L841.189 409.517C841.308 407.161 840.818 404.815 839.766 402.704C838.713 400.594 837.135 398.79 835.182 397.467C833.024 396.419 830.649 395.895 828.25 395.938C825.851 395.98 823.496 396.589 821.376 397.713L619.24 514.467C617.126 515.796 615.352 517.6 614.058 519.736L638.842 534.034L637.314 688.183L819.989 582.794C822.076 581.398 823.84 579.57 825.161 577.433C826.482 575.297 827.33 572.903 827.647 570.411Z" fill="#5F6790"/>
<path d="M611.194 695.385L624.737 534.491C625.082 532.003 625.957 529.618 627.302 527.497C628.647 525.376 630.432 523.568 632.536 522.195L832.266 406.777C836.2 404.493 837.834 406.232 837.535 410.746L827.716 570.429C827.371 572.916 826.496 575.301 825.151 577.422C823.805 579.543 822.021 581.351 819.917 582.724L617.641 699.478C613.706 701.743 610.808 699.917 611.194 695.385Z" fill="#464F7E"/>
<path d="M721.114 553.724C721.728 546.259 726.963 537.477 732.794 534.104C738.626 530.732 742.841 534.104 742.226 541.482C741.612 548.859 736.395 557.729 730.563 561.102C724.732 564.474 720.534 561.172 721.114 553.724Z" fill="#CBE220"/>
<path d="M719.764 609.563L758.969 586.799L752.294 582.935L713.107 605.734L719.764 609.563Z" fill="#5F6790"/>
<path d="M777.15 653.633L729.426 681.21C728.487 681.708 727.432 681.944 726.37 681.895C725.466 681.872 724.579 681.65 723.771 681.245L702.693 669.108H702.587C701.781 668.57 701.114 667.848 700.641 667.002C700.168 666.157 699.902 665.211 699.865 664.242V663.118C699.865 661.362 701.112 660.554 702.693 661.485L715.392 668.774L718.22 670.425L717.588 667.211L713.126 605.839L719.783 609.686L759.006 586.852L779.416 648.82C779.535 649.755 779.385 650.704 778.984 651.557C778.583 652.409 777.946 653.129 777.15 653.633Z" fill="#464F7E"/>
<path d="M700.724 661.151L717.007 651.736L720.309 673.657L700.724 661.151Z" fill="#1C1C2E"/>
<path d="M719.76 609.581L713.103 605.734L717.599 667.105C717.968 668.862 716.95 669.6 715.404 668.669L702.704 661.379C701.124 660.448 699.876 661.204 699.876 663.013V664.137C699.913 665.106 700.179 666.051 700.653 666.897C701.126 667.743 701.793 668.464 702.599 669.002H702.704L723.782 681.14C724.591 681.544 725.478 681.766 726.382 681.79L719.76 609.581Z" fill="#2E386B"/>
<path opacity="0.15" d="M507.052 728.582C481.196 743.495 481.196 767.699 507.052 782.629C532.907 797.56 574.799 797.542 600.637 782.629C626.475 767.717 626.493 743.512 600.637 728.582C574.782 713.652 532.89 713.652 507.052 728.582Z" fill="#1C1C2E"/>
<path d="M599.285 725.509C573.939 710.86 532.837 710.86 507.474 725.509V722.874C494.23 730.515 487.907 740.667 488.521 750.679C487.907 760.709 494.23 770.861 507.474 778.502C532.837 793.134 573.939 793.151 599.285 778.502C624.631 763.853 624.631 740.14 599.285 725.509Z" fill="#CBE220"/>
<path d="M599.283 722.874C624.629 737.506 624.629 761.236 599.283 775.867C573.937 790.499 532.835 790.499 507.471 775.867C482.108 761.236 482.125 737.506 507.471 722.874C532.817 708.243 573.937 708.225 599.283 722.874Z" fill="#CBE220"/>
<path opacity="0.6" d="M599.283 722.874C624.629 737.506 624.629 761.236 599.283 775.867C573.937 790.499 532.835 790.499 507.471 775.867C482.108 761.236 482.125 737.506 507.471 722.874C532.817 708.243 573.937 708.225 599.283 722.874Z" fill="#F5F9D2"/>
<path d="M522.266 727.968C504.841 738.015 504.841 754.315 522.266 764.397C539.69 774.48 567.934 774.445 585.341 764.397C602.748 754.35 602.765 738.05 585.341 727.968C567.917 717.886 539.69 717.903 522.266 727.968Z" fill="#CBE220"/>
<path d="M522.266 727.968C504.841 738.015 504.841 754.315 522.266 764.397C539.69 774.48 567.934 774.445 585.341 764.397C602.748 754.35 602.765 738.05 585.341 727.968C567.917 717.886 539.69 717.903 522.266 727.968Z" fill="#CBE220"/>
<path d="M524.389 729.197C508.159 738.577 508.159 753.788 524.389 763.15C540.619 772.512 566.949 772.53 583.179 763.15C599.409 753.771 599.426 738.559 583.179 729.197C566.931 719.835 540.637 719.835 524.389 729.197Z" fill="#CBE220"/>
<path opacity="0.6" d="M524.389 729.197C508.159 738.577 508.159 753.788 524.389 763.15C540.619 772.512 566.949 772.53 583.179 763.15C599.409 753.771 599.426 738.559 583.179 729.197C566.931 719.835 540.637 719.835 524.389 729.197Z" fill="#F5F9D2"/>
<path opacity="0.15" d="M617.835 753.735C616.35 751.115 614.583 748.665 612.566 746.428C609.892 743.217 606.775 740.401 603.309 738.068C598.694 735.397 593.736 733.369 588.572 732.043C582.776 730.286 576.839 728.53 570.796 728.705C563.454 728.986 556.586 732.218 549.947 735.31L516.486 751.118L499.905 758.952C498.306 759.707 494.319 760.849 492.545 762.465C493.89 764.537 495.464 766.452 497.235 768.174H497.621C522.019 773.197 547.049 774.251 571.956 774.479C581.81 774.567 591.646 774.479 601.482 774.339C610.915 768.525 616.325 761.236 617.835 753.735Z" fill="#1C1C2E"/>
<path d="M490.576 758.25C490.663 759.682 491.254 761.037 492.244 762.075C493.234 763.113 494.56 763.768 495.986 763.923C500.009 764.362 506.314 764.889 514.622 765.03C529.851 765.311 596.123 767.805 599.285 765.75C604.309 762.483 598.214 754.842 598.214 754.842L494.915 756.598L490.576 758.25Z" fill="#F4B3A2"/>
<path d="M572.626 710.596C574.196 709.752 575.939 709.28 577.72 709.216C579.502 709.152 581.274 709.498 582.901 710.227C585.373 711.37 587.576 713.022 589.365 715.075C592.017 718.026 595.302 717.85 602.819 723.19C610.337 728.53 610.021 731.604 611.391 734.432C612.568 736.856 611.795 740.035 612.673 742.617C613.552 745.199 616.011 747.254 617.24 749.801C618.498 752.189 618.871 754.945 618.294 757.582C617.977 758.877 617.304 760.056 616.351 760.988C615.398 761.919 614.203 762.565 612.902 762.852C612.041 762.992 611.145 762.939 610.32 763.15C609.271 763.54 608.269 764.047 607.334 764.661C605.138 765.802 601.853 767.173 599.693 765.943C597.076 764.45 596.584 762.096 596.584 758.232C595.495 755.246 592.281 752.242 590.401 749.643L579.476 734.414C578.615 733.22 565.723 714.899 565.529 715.093L572.626 710.596Z" fill="#F09A83"/>
<path opacity="0.1" d="M584.109 740.808L585.866 743.144L589.818 748.641C590.222 749.204 590.608 749.731 591.012 750.257L591.135 750.416C591.568 750.99 592.069 751.509 592.628 751.961C593.486 752.627 594.138 753.522 594.508 754.543C595.438 755.672 596.195 756.933 596.756 758.285C596.756 762.149 597.248 764.503 599.865 765.996C602.025 767.225 605.31 765.855 607.506 764.713C608.441 764.099 609.443 763.593 610.492 763.203C611.335 762.992 612.248 763.045 613.074 762.904C614.375 762.617 615.57 761.972 616.523 761.04C617.476 760.109 618.149 758.929 618.466 757.635C619.043 754.998 618.669 752.242 617.412 749.853C616.758 748.604 615.975 747.427 615.076 746.341C615.487 747.282 615.593 748.329 615.379 749.334C615.165 750.339 614.641 751.252 613.882 751.944C611.914 753.191 605.573 752.506 602.991 751.136C600.409 749.766 601.411 745.55 600.62 743.6C599.83 741.651 596.071 740.175 596.756 736.065C597.441 731.955 594.876 728.758 588.869 726.738C582.862 724.718 582.001 722.242 579.577 719.501C577.153 716.761 570.514 715.988 565.701 715.075C565.894 714.952 578.752 733.237 579.63 734.396L584.109 740.808Z" fill="#1C1C2E"/>
<path d="M565.525 715.075C571.782 718.598 577.542 722.94 582.651 727.985L582.862 728.214C583.09 728.442 583.336 728.67 583.547 728.916C591.838 737.699 596.563 747.623 596.563 758.267H490.576L498.111 753.929L500.869 752.348L501.22 752.137L565.525 715.075Z" fill="#F4B3A2"/>
<path opacity="0.3" d="M565.525 715.075C571.782 718.598 577.542 722.94 582.651 727.985L582.862 728.214C583.09 728.442 583.336 728.67 583.547 728.916C591.838 737.699 596.563 747.623 596.563 758.267H490.576L498.111 753.929L500.869 752.348L501.22 752.137L565.525 715.075Z" fill="#F5F9D2"/>
<path d="M529.182 741.914C530.515 742.627 531.618 743.706 532.361 745.023C533.573 747.482 532.519 750.293 529.182 752.155C526.43 753.54 523.392 754.261 520.312 754.261C517.231 754.261 514.193 753.54 511.441 752.155C508.877 750.662 507.665 748.642 507.788 746.78C507.938 745.727 508.352 744.729 508.991 743.879C509.629 743.028 510.472 742.353 511.441 741.914C514.193 740.529 517.231 739.807 520.312 739.807C523.392 739.807 526.43 740.529 529.182 741.914Z" fill="#BB492B"/>
<path d="M559.52 740.772C561.578 740.746 563.628 741.037 565.598 741.633C569.497 742.828 572.184 745.146 572.255 747.904C572.36 751.891 566.827 755.176 559.959 755.228C556.743 755.328 553.559 754.564 550.738 753.015C549.785 752.563 548.962 751.877 548.347 751.019C547.733 750.162 547.347 749.162 547.225 748.115C546.979 744.127 552.494 740.843 559.52 740.772Z" fill="#BB492B"/>
<path d="M571.183 720.415C573.241 720.389 575.29 720.679 577.26 721.276C581.16 722.47 583.829 724.788 583.9 727.546C584.005 731.533 578.472 734.818 571.604 734.888C568.38 734.985 565.19 734.214 562.365 732.658C561.412 732.206 560.59 731.519 559.975 730.662C559.36 729.804 558.974 728.805 558.852 727.757C558.712 723.77 564.245 720.485 571.183 720.415Z" fill="#BB492B"/>
<path opacity="0.15" d="M345.805 727.406C355.852 733.202 372.152 733.202 382.164 727.406C392.176 721.609 392.193 712.212 382.164 706.328C372.134 700.444 355.817 700.531 345.805 706.328C335.793 712.124 335.775 721.609 345.805 727.406Z" fill="#1C1C2E"/>
<path d="M388.243 716.761V645.079H344.876V716.761C344.682 720.099 346.773 723.471 351.199 726.018C359.665 730.919 373.401 730.919 381.885 726.018C386.329 723.471 388.419 720.099 388.243 716.761Z" fill="#EBEBEB"/>
<path d="M351.235 653.932C359.701 658.832 373.437 658.832 381.921 653.932C390.405 649.031 390.387 641.11 381.921 636.209C373.455 631.308 359.701 631.326 351.235 636.209C342.769 641.092 342.751 649.049 351.235 653.932Z" fill="#FAFAFA"/>
<path d="M352.255 653.212C360.211 657.708 373.122 657.708 381.078 653.212C389.035 648.715 389.035 641.426 381.078 636.929C373.122 632.432 360.211 632.45 352.255 636.929C344.298 641.408 344.21 648.715 352.255 653.212Z" fill="#EBEBEB"/>
<path d="M380.989 639.037C373.033 634.558 360.122 634.558 352.165 639.037C348.653 641.022 346.703 643.533 346.281 646.063C346.703 648.645 348.653 651.157 352.165 653.089C360.122 657.585 373.033 657.585 380.989 653.089C384.502 651.104 386.452 648.592 386.856 646.063C386.452 643.533 384.485 641.057 380.989 639.037Z" fill="#F5F5F5"/>
<path d="M344.873 709.437C344.873 712.669 346.964 715.901 351.232 718.36C359.698 723.26 373.434 723.26 381.918 718.36C386.151 715.918 388.276 712.704 388.276 709.577V652.14C388.276 655.337 386.151 658.551 381.918 660.923C373.434 665.823 359.698 665.823 351.232 660.923C346.964 658.464 344.838 655.232 344.873 652V709.437Z" fill="#644BBF"/>
<path opacity="0.3" d="M344.873 709.437C344.873 712.669 346.964 715.901 351.232 718.36C359.698 723.26 373.434 723.26 381.918 718.36C386.151 715.918 388.276 712.704 388.276 709.577V652.14C388.276 655.337 386.151 658.551 381.918 660.923C373.434 665.823 359.698 665.823 351.232 660.923C346.964 658.464 344.838 655.232 344.873 652V709.437Z" fill="#644BBF"/>
<path opacity="0.05" d="M375.458 728.583C367.483 730.638 357.788 729.812 351.236 726.018C346.827 723.471 344.719 720.099 344.913 716.761V645.079C344.913 648.276 347.055 651.49 351.289 653.862C351.958 654.265 352.657 654.617 353.379 654.916V722.031C353.326 725.649 365.428 729.97 375.458 728.583Z" fill="#1C1C2E"/>
<path d="M377.423 646.976C374.366 645.22 370.239 644.745 368.201 645.922C366.164 647.099 366.972 649.435 369.958 651.192C372.996 652.948 377.124 653.422 379.179 652.246C381.234 651.069 380.479 648.733 377.423 646.976Z" fill="#5F6790"/>
<path d="M369.293 643.13L365.534 641.057C362.478 639.3 358.35 638.826 356.313 640.003C354.275 641.18 355.083 643.516 358.069 645.272L361.828 647.433C364.867 649.189 368.994 649.664 371.049 648.487C373.105 647.31 372.349 644.886 369.293 643.13ZM361.986 643.13C361.362 643.442 360.673 643.604 359.975 643.604C359.277 643.604 358.588 643.442 357.964 643.13C357.718 643.049 357.503 642.892 357.352 642.682C357.2 642.473 357.118 642.22 357.118 641.961C357.118 641.703 357.2 641.45 357.352 641.24C357.503 641.031 357.718 640.874 357.964 640.793C358.586 640.473 359.275 640.306 359.975 640.306C360.674 640.306 361.364 640.473 361.986 640.793C362.262 640.852 362.51 641.003 362.688 641.222C362.865 641.441 362.962 641.714 362.962 641.997C362.962 642.279 362.865 642.552 362.688 642.771C362.51 642.99 362.262 643.142 361.986 643.2V643.13ZM369.433 646.994C368.809 647.306 368.12 647.469 367.422 647.469C366.724 647.469 366.036 647.306 365.411 646.994C365.165 646.913 364.951 646.756 364.799 646.547C364.647 646.337 364.566 646.085 364.566 645.826C364.566 645.567 364.647 645.314 364.799 645.105C364.951 644.895 365.165 644.738 365.411 644.658C366.033 644.337 366.723 644.17 367.422 644.17C368.122 644.17 368.811 644.337 369.433 644.658C369.71 644.716 369.957 644.867 370.135 645.086C370.313 645.305 370.41 645.579 370.41 645.861C370.41 646.143 370.313 646.417 370.135 646.636C369.957 646.855 369.71 647.006 369.433 647.064V646.994Z" fill="#EBEBEB"/>
<path d="M385.646 711.58L376.67 706.978L370.821 710.28L361.635 704.062L365.517 696.966L372.947 704.747L376.934 701.902L385.646 711.58Z" fill="#CBE220"/>
<path d="M359.492 680.718L369.276 693.576L373.948 691.31L376.319 700.127L380.201 697.686L384.996 707.522L383.205 690.063L378.989 692.908L377.689 681.263L371.331 684.635L369.539 674.079L359.492 680.718Z" fill="#CBE220"/>
<path d="M360.388 691.117C360.345 691.157 360.288 691.18 360.229 691.18C360.171 691.18 360.114 691.157 360.071 691.117L359.896 690.976C359.676 690.787 359.395 690.683 359.105 690.683C358.815 690.683 358.535 690.787 358.315 690.976L358.139 691.134C358.097 691.175 358.04 691.198 357.981 691.198C357.922 691.198 357.866 691.175 357.823 691.134C357.782 691.092 357.76 691.035 357.76 690.976C357.76 690.917 357.782 690.861 357.823 690.818L357.964 690.625C358.156 690.407 358.263 690.126 358.263 689.834C358.263 689.543 358.156 689.262 357.964 689.044L357.806 688.886C357.764 688.841 357.74 688.781 357.74 688.719C357.74 688.657 357.764 688.598 357.806 688.552C357.848 688.511 357.905 688.489 357.964 688.489C358.023 688.489 358.079 688.511 358.122 688.552L358.297 688.693C358.517 688.882 358.798 688.986 359.088 688.986C359.378 688.986 359.658 688.882 359.878 688.693L360.054 688.535C360.096 688.494 360.153 688.471 360.212 688.471C360.271 688.471 360.327 688.494 360.37 688.535C360.412 688.58 360.435 688.64 360.435 688.702C360.435 688.763 360.412 688.823 360.37 688.868L360.229 689.044C360.037 689.262 359.931 689.543 359.931 689.834C359.931 690.126 360.037 690.407 360.229 690.625L360.388 690.783C360.43 690.828 360.453 690.888 360.453 690.95C360.453 691.012 360.43 691.071 360.388 691.117ZM358.631 690.326C358.92 690.256 359.221 690.256 359.509 690.326C359.431 690.045 359.431 689.747 359.509 689.466C359.221 689.536 358.92 689.536 358.631 689.466C358.71 689.747 358.71 690.045 358.631 690.326Z" fill="#CBE220"/>
<path d="M362.407 696.878C362.13 697.172 361.749 697.346 361.345 697.363C360.941 697.379 360.547 697.237 360.247 696.966C359.948 696.691 359.772 696.309 359.755 695.904C359.739 695.499 359.884 695.103 360.159 694.805C360.434 694.507 360.816 694.33 361.221 694.314C361.626 694.297 362.021 694.443 362.319 694.717C362.613 694.995 362.787 695.376 362.804 695.78C362.82 696.184 362.678 696.578 362.407 696.878ZM360.51 695.121C360.403 695.22 360.318 695.34 360.259 695.474C360.201 695.607 360.171 695.751 360.171 695.897C360.171 696.042 360.201 696.186 360.26 696.32C360.318 696.453 360.404 696.573 360.511 696.671C360.618 696.77 360.745 696.845 360.882 696.893C361.02 696.94 361.166 696.958 361.311 696.946C361.456 696.934 361.597 696.892 361.726 696.823C361.854 696.754 361.966 696.659 362.056 696.544C362.219 696.336 362.297 696.073 362.275 695.809C362.254 695.546 362.133 695.3 361.939 695.12C361.744 694.941 361.489 694.842 361.224 694.842C360.959 694.842 360.704 694.942 360.51 695.121Z" fill="#CBE220"/>
<path d="M354.327 695.894C354.306 695.917 354.28 695.935 354.251 695.948C354.222 695.96 354.191 695.967 354.16 695.967C354.129 695.967 354.098 695.96 354.069 695.948C354.04 695.935 354.015 695.917 353.993 695.894L353.414 695.367C353.39 695.345 353.372 695.317 353.359 695.287C353.346 695.257 353.34 695.225 353.34 695.192C353.34 695.159 353.346 695.127 353.359 695.097C353.372 695.066 353.39 695.039 353.414 695.016C353.459 694.974 353.519 694.951 353.581 694.951C353.642 694.951 353.702 694.974 353.747 695.016L354.345 695.543C354.367 695.567 354.384 695.595 354.395 695.626C354.406 695.657 354.411 695.69 354.41 695.722C354.408 695.755 354.4 695.787 354.386 695.817C354.372 695.846 354.352 695.873 354.327 695.894Z" fill="#CBE220"/>
<path d="M354.361 696.579L353.816 697.159C353.774 697.206 353.716 697.234 353.653 697.237C353.59 697.24 353.529 697.219 353.483 697.177C353.436 697.135 353.408 697.076 353.405 697.014C353.401 696.951 353.423 696.89 353.465 696.843L354.009 696.246C354.056 696.211 354.113 696.194 354.171 696.198C354.229 696.201 354.283 696.225 354.325 696.265C354.367 696.305 354.394 696.358 354.4 696.416C354.407 696.473 354.393 696.531 354.361 696.579Z" fill="#CBE220"/>
<path d="M355.644 697.124C355.623 697.147 355.597 697.165 355.568 697.178C355.539 697.19 355.508 697.196 355.477 697.196C355.446 697.196 355.415 697.19 355.386 697.178C355.357 697.165 355.332 697.147 355.31 697.124L354.731 696.597C354.684 696.555 354.656 696.496 354.653 696.434C354.649 696.371 354.671 696.31 354.713 696.263C354.755 696.217 354.814 696.189 354.876 696.185C354.939 696.182 355 696.204 355.047 696.246L355.644 696.773C355.667 696.796 355.686 696.823 355.699 696.853C355.711 696.883 355.718 696.916 355.718 696.948C355.718 696.981 355.711 697.013 355.699 697.044C355.686 697.074 355.667 697.101 355.644 697.124Z" fill="#CBE220"/>
<path d="M355.576 695.262L355.031 695.842C354.989 695.888 354.93 695.916 354.868 695.92C354.805 695.923 354.744 695.901 354.697 695.859C354.651 695.817 354.623 695.759 354.619 695.696C354.616 695.634 354.638 695.572 354.68 695.526L355.224 694.928C355.27 694.886 355.329 694.863 355.391 694.863C355.453 694.863 355.513 694.886 355.558 694.928C355.602 694.972 355.629 695.03 355.632 695.092C355.635 695.154 355.615 695.214 355.576 695.262Z" fill="#CBE220"/>
<path d="M381.761 682.844C381.388 682.681 381.095 682.376 380.947 681.997C380.799 681.619 380.807 681.196 380.97 680.824C381.133 680.451 381.438 680.158 381.817 680.01C382.195 679.862 382.618 679.87 382.99 680.033C383.363 680.196 383.656 680.501 383.804 680.88C383.952 681.258 383.944 681.681 383.781 682.053C383.618 682.426 383.313 682.719 382.934 682.867C382.556 683.015 382.133 683.007 381.761 682.844ZM382.797 680.472C382.541 680.361 382.251 680.355 381.991 680.457C381.73 680.559 381.521 680.761 381.41 681.017C381.298 681.273 381.292 681.563 381.394 681.823C381.496 682.084 381.698 682.293 381.954 682.405C382.211 682.512 382.499 682.515 382.758 682.413C383.017 682.311 383.226 682.113 383.342 681.86C383.397 681.733 383.427 681.597 383.429 681.458C383.432 681.32 383.407 681.182 383.357 681.053C383.306 680.925 383.231 680.807 383.135 680.707C383.039 680.608 382.924 680.528 382.797 680.472Z" fill="#CBE220"/>
<path d="M380.04 674.887C379.983 674.86 379.938 674.812 379.915 674.753C379.892 674.694 379.893 674.629 379.917 674.571L380.233 673.85C380.266 673.806 380.314 673.773 380.368 673.759C380.422 673.745 380.479 673.749 380.53 673.771C380.581 673.794 380.623 673.833 380.649 673.883C380.675 673.932 380.683 673.989 380.672 674.044L380.356 674.764C380.329 674.821 380.281 674.866 380.223 674.889C380.164 674.911 380.098 674.911 380.04 674.887Z" fill="#CBE220"/>
<path d="M379.409 675.133L378.689 674.816C378.653 674.809 378.619 674.794 378.589 674.772C378.56 674.75 378.535 674.722 378.518 674.689C378.501 674.656 378.492 674.62 378.49 674.583C378.489 674.547 378.496 674.51 378.511 674.476C378.526 674.442 378.548 674.412 378.576 674.388C378.604 674.364 378.637 674.347 378.673 674.337C378.709 674.328 378.746 674.327 378.782 674.334C378.818 674.34 378.853 674.355 378.882 674.377L379.602 674.694C379.639 674.701 379.673 674.716 379.702 674.738C379.732 674.76 379.756 674.788 379.773 674.821C379.79 674.854 379.8 674.89 379.801 674.927C379.802 674.963 379.795 675 379.78 675.034C379.766 675.068 379.743 675.098 379.715 675.122C379.687 675.146 379.654 675.163 379.619 675.173C379.583 675.182 379.546 675.183 379.509 675.176C379.473 675.17 379.439 675.155 379.409 675.133Z" fill="#CBE220"/>
<path d="M379.321 676.538C379.264 676.511 379.219 676.463 379.196 676.404C379.174 676.345 379.174 676.28 379.198 676.222L379.514 675.484C379.541 675.427 379.589 675.382 379.648 675.359C379.707 675.336 379.772 675.337 379.831 675.361C379.888 675.388 379.932 675.436 379.955 675.494C379.978 675.553 379.977 675.619 379.953 675.677L379.637 676.415C379.61 676.472 379.563 676.517 379.504 676.54C379.445 676.562 379.38 676.562 379.321 676.538Z" fill="#CBE220"/>
<path d="M381.059 675.853L380.339 675.537C380.282 675.51 380.237 675.462 380.214 675.403C380.191 675.344 380.192 675.279 380.216 675.22C380.227 675.193 380.244 675.168 380.265 675.146C380.287 675.125 380.312 675.109 380.34 675.097C380.367 675.086 380.397 675.08 380.427 675.08C380.457 675.08 380.487 675.086 380.514 675.097L381.252 675.414C381.297 675.447 381.329 675.494 381.344 675.548C381.358 675.602 381.353 675.659 381.331 675.71C381.309 675.762 381.269 675.803 381.22 675.829C381.17 675.855 381.114 675.863 381.059 675.853Z" fill="#CBE220"/>
<path d="M367.166 711.931C367.191 711.985 367.193 712.046 367.174 712.101C367.154 712.157 367.114 712.203 367.061 712.229L366.85 712.335C366.591 712.464 366.387 712.683 366.277 712.951C366.167 713.22 366.159 713.519 366.253 713.793V714.021C366.27 714.077 366.265 714.137 366.239 714.19C366.213 714.242 366.167 714.282 366.112 714.302C366.059 714.327 365.998 714.329 365.942 714.31C365.886 714.29 365.84 714.249 365.814 714.197L365.708 713.986C365.579 713.726 365.36 713.523 365.092 713.413C364.824 713.303 364.525 713.294 364.251 713.389H364.022C363.966 713.406 363.906 713.401 363.854 713.374C363.801 713.348 363.761 713.303 363.741 713.248C363.717 713.194 363.714 713.133 363.734 713.078C363.753 713.022 363.794 712.976 363.847 712.95L364.057 712.844C364.317 712.715 364.521 712.496 364.63 712.228C364.74 711.959 364.749 711.66 364.655 711.386V711.158C364.638 711.102 364.643 711.042 364.669 710.989C364.695 710.937 364.74 710.897 364.795 710.877C364.849 710.852 364.91 710.85 364.966 710.869C365.021 710.889 365.067 710.93 365.094 710.982L365.199 711.193C365.328 711.453 365.547 711.656 365.816 711.766C366.084 711.876 366.383 711.885 366.657 711.79H366.885C366.941 711.773 367.002 711.778 367.054 711.805C367.106 711.831 367.146 711.876 367.166 711.931ZM365.726 713.195C365.877 713.133 365.998 713.012 366.06 712.861C366.123 712.709 366.123 712.539 366.06 712.387C365.997 712.236 365.876 712.116 365.725 712.053C365.573 711.991 365.403 711.991 365.252 712.054C365.177 712.085 365.109 712.131 365.051 712.188C364.994 712.245 364.949 712.314 364.918 712.389C364.887 712.464 364.871 712.544 364.871 712.625C364.871 712.706 364.887 712.787 364.918 712.862C364.949 712.937 364.995 713.005 365.052 713.062C365.11 713.12 365.178 713.165 365.253 713.196C365.328 713.227 365.408 713.243 365.49 713.243C365.571 713.243 365.651 713.227 365.726 713.195Z" fill="#CBE220"/>
<path d="M377.249 712.036C377.364 712.315 377.394 712.622 377.336 712.918C377.277 713.215 377.131 713.487 376.918 713.7C376.704 713.914 376.433 714.059 376.137 714.119C375.84 714.178 375.533 714.148 375.254 714.033C374.975 713.918 374.736 713.723 374.568 713.472C374.4 713.221 374.309 712.926 374.309 712.624C374.308 712.322 374.396 712.027 374.563 711.775C374.73 711.524 374.968 711.327 375.246 711.211C375.622 711.058 376.042 711.06 376.416 711.214C376.791 711.368 377.09 711.664 377.249 712.036ZM374.86 713.037C374.976 713.291 375.184 713.49 375.442 713.595C375.7 713.699 375.988 713.701 376.248 713.599C376.504 713.487 376.706 713.279 376.811 713.02C376.916 712.761 376.916 712.471 376.81 712.212C376.701 711.957 376.497 711.755 376.24 711.65C375.984 711.544 375.696 711.544 375.44 711.65C375.307 711.704 375.186 711.783 375.085 711.884C374.984 711.986 374.903 712.106 374.849 712.239C374.795 712.371 374.768 712.514 374.77 712.657C374.772 712.8 374.803 712.941 374.86 713.073V713.037Z" fill="#CBE220"/>
<path d="M370.47 717.429C370.494 717.487 370.494 717.552 370.471 717.611C370.448 717.67 370.404 717.718 370.347 717.745L369.609 718.043C369.579 718.065 369.545 718.08 369.509 718.087C369.472 718.094 369.435 718.093 369.4 718.083C369.364 718.074 369.331 718.056 369.303 718.032C369.275 718.008 369.252 717.978 369.238 717.945C369.223 717.911 369.216 717.874 369.217 717.837C369.218 717.8 369.228 717.764 369.245 717.732C369.262 717.699 369.286 717.671 369.316 717.648C369.345 717.626 369.379 717.611 369.416 717.604L370.153 717.306C370.212 717.282 370.277 717.281 370.336 717.304C370.395 717.327 370.443 717.371 370.47 717.429Z" fill="#CBE220"/>
<path d="M371.083 717.692L371.399 718.412C371.422 718.473 371.42 718.54 371.394 718.599C371.367 718.659 371.319 718.705 371.258 718.729C371.231 718.743 371.201 718.751 371.17 718.752C371.139 718.754 371.109 718.748 371.08 718.737C371.052 718.725 371.026 718.707 371.005 718.685C370.985 718.662 370.969 718.635 370.96 718.606L370.643 717.868C370.619 717.81 370.619 717.744 370.642 717.685C370.665 717.626 370.709 717.579 370.766 717.552C370.827 717.529 370.894 717.531 370.953 717.557C371.013 717.583 371.059 717.632 371.083 717.692Z" fill="#CBE220"/>
<path d="M372.12 716.744C372.134 716.771 372.142 716.801 372.144 716.832C372.145 716.862 372.14 716.893 372.128 716.922C372.116 716.95 372.098 716.976 372.076 716.996C372.053 717.017 372.026 717.033 371.997 717.042L371.259 717.358C371.199 717.381 371.131 717.379 371.072 717.353C371.013 717.327 370.967 717.278 370.943 717.218C370.932 717.189 370.927 717.158 370.928 717.128C370.929 717.097 370.936 717.066 370.949 717.039C370.963 717.011 370.981 716.986 371.004 716.965C371.027 716.945 371.054 716.929 371.084 716.919L371.804 716.603C371.864 716.58 371.931 716.582 371.991 716.608C372.05 716.635 372.096 716.683 372.12 716.744Z" fill="#CBE220"/>
<path d="M370.399 716.023L370.697 716.761C370.721 716.82 370.722 716.885 370.699 716.944C370.676 717.003 370.632 717.05 370.574 717.077C370.514 717.1 370.447 717.098 370.387 717.072C370.328 717.046 370.282 716.997 370.258 716.937L369.96 716.217C369.949 716.162 369.957 716.105 369.983 716.056C370.009 716.006 370.051 715.967 370.102 715.944C370.153 715.922 370.21 715.918 370.264 715.932C370.318 715.946 370.366 715.979 370.399 716.023Z" fill="#CBE220"/>
<path opacity="0.15" d="M864.342 618.609C874.389 624.405 890.689 624.405 900.701 618.609C910.713 612.813 910.73 603.415 900.701 597.531C890.671 591.647 874.354 591.735 864.342 597.531C854.33 603.328 854.312 612.813 864.342 618.609Z" fill="#1C1C2E"/>
<path d="M863.389 607.965V536.282H906.81V607.965C906.985 611.302 904.895 614.674 900.486 617.221C892.003 622.122 878.267 622.122 869.783 617.221C865.339 614.71 863.249 611.302 863.389 607.965Z" fill="#EBEBEB"/>
<path d="M900.45 545.153C891.966 550.036 878.231 550.036 869.747 545.153C861.263 540.27 861.281 532.313 869.747 527.43C878.213 522.547 891.966 522.529 900.45 527.43C908.934 532.33 908.917 540.252 900.45 545.153Z" fill="#FAFAFA"/>
<path d="M885.102 547.787C896.355 547.787 905.477 542.636 905.477 536.282C905.477 529.928 896.355 524.777 885.102 524.777C873.849 524.777 864.727 529.928 864.727 536.282C864.727 542.636 873.849 547.787 885.102 547.787Z" fill="#EBEBEB"/>
<path d="M870.697 530.258C878.654 525.761 891.546 525.761 899.503 530.258C903.016 532.225 904.966 534.754 905.387 537.284C904.966 539.866 903.016 542.395 899.503 544.31C891.546 548.806 878.654 548.806 870.697 544.31C867.184 542.342 865.234 539.813 864.812 537.284C865.234 534.754 867.184 532.155 870.697 530.258Z" fill="#F5F5F5"/>
<path d="M906.811 600.658C906.811 603.89 904.721 607.121 900.452 609.598C891.969 614.481 878.233 614.481 869.749 609.598C865.516 607.139 863.391 603.942 863.391 600.728V543.343C863.391 546.558 865.516 549.755 869.749 552.214C878.233 557.097 891.969 557.097 900.452 552.214C904.721 549.737 906.829 546.505 906.811 543.273V600.658Z" fill="#B7CC1D"/>
<path opacity="0.3" d="M906.811 600.658C906.811 603.89 904.721 607.121 900.452 609.598C891.969 614.481 878.233 614.481 869.749 609.598C865.516 607.139 863.391 603.942 863.391 600.728V543.343C863.391 546.558 865.516 549.755 869.749 552.214C878.233 557.097 891.969 557.097 900.452 552.214C904.721 549.737 906.829 546.505 906.811 543.273V600.658Z" fill="#F5F9D2"/>
<path opacity="0.05" d="M876.215 619.786C884.189 621.858 893.903 621.015 900.437 617.221C904.863 614.692 906.953 611.32 906.778 607.965V536.282C906.778 539.497 904.652 542.711 900.402 545.065C899.73 545.459 899.032 545.805 898.311 546.101V613.164C898.347 616.87 886.227 621.173 876.215 619.786Z" fill="#1C1C2E"/>
<path d="M872.438 543.502C874.475 544.678 878.603 544.222 881.659 542.448C884.698 540.691 885.523 538.302 883.416 537.178C881.308 536.054 877.25 536.476 874.194 538.232C871.208 539.936 870.418 542.325 872.438 543.502Z" fill="#5F6790"/>
<path d="M880.57 539.672C882.608 540.849 886.735 540.375 889.792 538.619L893.551 536.441C896.589 534.684 897.415 532.295 895.307 531.171C893.199 530.047 889.142 530.468 886.086 532.225L882.327 534.403C879.341 536.107 878.515 538.478 880.57 539.672ZM889.739 532.155C890.367 531.842 891.058 531.68 891.759 531.68C892.46 531.68 893.151 531.842 893.779 532.155C894.025 532.236 894.239 532.392 894.391 532.602C894.543 532.811 894.625 533.064 894.625 533.323C894.625 533.582 894.543 533.834 894.391 534.044C894.239 534.254 894.025 534.41 893.779 534.491C893.154 534.811 892.462 534.979 891.759 534.979C891.057 534.979 890.364 534.811 889.739 534.491C889.493 534.41 889.279 534.254 889.127 534.044C888.975 533.834 888.893 533.582 888.893 533.323C888.893 533.064 888.975 532.811 889.127 532.602C889.279 532.392 889.493 532.236 889.739 532.155ZM882.292 536.019C882.919 535.707 883.611 535.544 884.312 535.544C885.013 535.544 885.704 535.707 886.332 536.019C886.577 536.1 886.792 536.256 886.944 536.466C887.095 536.676 887.177 536.928 887.177 537.187C887.177 537.446 887.095 537.698 886.944 537.908C886.792 538.118 886.577 538.274 886.332 538.355C885.706 538.676 885.014 538.843 884.312 538.843C883.609 538.843 882.917 538.676 882.292 538.355C882.004 538.313 881.741 538.17 881.549 537.952C881.357 537.735 881.248 537.456 881.241 537.165C881.235 536.875 881.332 536.592 881.514 536.366C881.697 536.14 881.954 535.986 882.239 535.931L882.292 536.019Z" fill="#EBEBEB"/>
<path d="M866.023 602.801L874.999 598.199L880.848 601.483L890.052 595.265L886.17 588.169L878.74 595.95L874.736 593.105L866.023 602.801Z" fill="#644BBF"/>
<path d="M892.182 571.921L882.398 584.779L877.726 582.531L875.355 591.331L871.49 588.907L866.678 598.743L868.469 581.266L872.685 584.111L873.985 572.483L880.361 575.838L882.135 565.282L892.182 571.921Z" fill="#644BBF"/>
<path d="M891.286 582.003L891.444 581.828C891.63 581.606 891.732 581.326 891.732 581.037C891.732 580.748 891.63 580.468 891.444 580.247L891.286 580.071C891.249 580.027 891.228 579.971 891.228 579.913C891.228 579.855 891.249 579.799 891.286 579.755C891.328 579.714 891.385 579.692 891.444 579.692C891.503 579.692 891.559 579.714 891.602 579.755L891.778 579.913C891.996 580.106 892.277 580.212 892.568 580.212C892.859 580.212 893.14 580.106 893.358 579.913L893.534 579.773C893.579 579.731 893.639 579.707 893.701 579.707C893.763 579.707 893.822 579.731 893.868 579.773C893.902 579.818 893.92 579.874 893.92 579.931C893.92 579.988 893.902 580.043 893.868 580.089L893.71 580.265C893.52 580.484 893.416 580.765 893.416 581.055C893.416 581.345 893.52 581.625 893.71 581.845L893.85 582.021C893.887 582.065 893.908 582.121 893.908 582.179C893.908 582.237 893.887 582.293 893.85 582.337C893.805 582.379 893.745 582.402 893.683 582.402C893.621 582.402 893.562 582.379 893.516 582.337L893.358 582.179C893.14 581.986 892.859 581.88 892.568 581.88C892.277 581.88 891.996 581.986 891.778 582.179L891.584 582.32C891.542 582.36 891.485 582.383 891.426 582.383C891.367 582.383 891.311 582.36 891.268 582.32C891.23 582.275 891.21 582.217 891.213 582.158C891.217 582.099 891.242 582.044 891.286 582.003ZM893.042 580.669C892.987 580.609 892.92 580.56 892.846 580.526C892.772 580.492 892.692 580.472 892.61 580.469C892.529 580.466 892.447 580.479 892.371 580.507C892.294 580.535 892.224 580.578 892.164 580.633C892.104 580.689 892.055 580.755 892.021 580.829C891.987 580.904 891.968 580.984 891.964 581.065C891.961 581.147 891.974 581.228 892.002 581.305C892.03 581.381 892.073 581.452 892.129 581.512C892.241 581.633 892.396 581.705 892.561 581.711C892.725 581.718 892.886 581.659 893.007 581.547C893.128 581.435 893.2 581.28 893.206 581.115C893.213 580.95 893.154 580.79 893.042 580.669Z" fill="#644BBF"/>
<path d="M889.37 585.92C889.517 585.784 889.69 585.679 889.879 585.609C890.067 585.54 890.267 585.509 890.468 585.517C890.669 585.525 890.866 585.573 891.048 585.657C891.23 585.741 891.394 585.861 891.53 586.008C891.666 586.156 891.772 586.329 891.841 586.517C891.91 586.706 891.942 586.906 891.934 587.107C891.925 587.307 891.878 587.504 891.794 587.687C891.709 587.869 891.59 588.033 891.442 588.169C891.295 588.305 891.122 588.411 890.933 588.48C890.745 588.549 890.544 588.581 890.344 588.572C890.143 588.564 889.946 588.517 889.764 588.432C889.582 588.348 889.418 588.229 889.282 588.081C889.146 587.933 889.04 587.76 888.971 587.572C888.901 587.383 888.87 587.183 888.878 586.983C888.886 586.782 888.934 586.585 889.018 586.403C889.103 586.22 889.222 586.057 889.37 585.92ZM889.686 586.272C889.588 586.37 889.51 586.486 889.456 586.614C889.403 586.742 889.376 586.88 889.376 587.018C889.376 587.157 889.403 587.294 889.456 587.422C889.51 587.551 889.588 587.667 889.686 587.765C889.88 587.944 890.135 588.044 890.4 588.044C890.665 588.045 890.92 587.945 891.114 587.766C891.309 587.587 891.429 587.341 891.451 587.077C891.473 586.813 891.394 586.551 891.231 586.342C891.138 586.239 891.026 586.155 890.9 586.096C890.774 586.037 890.638 586.003 890.5 585.996C890.361 585.99 890.222 586.011 890.092 586.058C889.961 586.105 889.841 586.178 889.738 586.272H889.686Z" fill="#644BBF"/>
<path d="M897.343 587.115C897.389 587.157 897.448 587.18 897.51 587.18C897.572 587.18 897.632 587.157 897.677 587.115L898.274 586.57C898.316 586.525 898.34 586.465 898.34 586.404C898.34 586.342 898.316 586.282 898.274 586.237C898.253 586.214 898.227 586.196 898.198 586.183C898.17 586.171 898.139 586.164 898.108 586.164C898.076 586.164 898.045 586.171 898.017 586.183C897.988 586.196 897.962 586.214 897.941 586.237L897.361 586.781C897.337 586.801 897.317 586.826 897.303 586.854C897.289 586.882 897.281 586.913 897.28 586.944C897.278 586.975 897.283 587.007 897.294 587.036C897.305 587.066 897.322 587.092 897.343 587.115Z" fill="#644BBF"/>
<path d="M897.311 587.782L897.855 588.362C897.876 588.385 897.901 588.404 897.929 588.417C897.957 588.43 897.988 588.438 898.019 588.44C898.05 588.441 898.081 588.437 898.11 588.427C898.139 588.416 898.166 588.4 898.189 588.38C898.212 588.359 898.231 588.334 898.244 588.306C898.258 588.278 898.265 588.247 898.267 588.216C898.269 588.185 898.264 588.154 898.254 588.125C898.244 588.096 898.228 588.069 898.207 588.046L897.662 587.466C897.641 587.443 897.615 587.425 897.586 587.413C897.558 587.4 897.527 587.394 897.495 587.394C897.464 587.394 897.433 587.4 897.404 587.413C897.376 587.425 897.35 587.443 897.329 587.466C897.289 587.508 897.265 587.563 897.262 587.621C897.259 587.679 897.276 587.736 897.311 587.782Z" fill="#644BBF"/>
<path d="M896.025 588.362C896.047 588.385 896.072 588.403 896.101 588.416C896.13 588.428 896.161 588.434 896.192 588.434C896.223 588.434 896.254 588.428 896.283 588.416C896.312 588.403 896.338 588.385 896.359 588.362L896.939 587.817C896.962 587.797 896.98 587.772 896.994 587.744C897.007 587.716 897.015 587.685 897.017 587.654C897.018 587.623 897.014 587.592 897.003 587.563C896.993 587.534 896.977 587.507 896.956 587.484C896.935 587.461 896.91 587.442 896.882 587.429C896.854 587.415 896.824 587.407 896.793 587.406C896.762 587.404 896.731 587.409 896.702 587.419C896.672 587.429 896.646 587.445 896.623 587.466L896.043 588.011C896.016 588.031 895.994 588.057 895.978 588.086C895.962 588.116 895.953 588.149 895.951 588.182C895.95 588.216 895.956 588.249 895.968 588.28C895.981 588.311 896 588.339 896.025 588.362Z" fill="#644BBF"/>
<path d="M896.094 586.465L896.639 587.045C896.659 587.068 896.685 587.086 896.713 587.1C896.741 587.113 896.771 587.121 896.802 587.122C896.833 587.124 896.864 587.12 896.893 587.109C896.922 587.099 896.949 587.083 896.972 587.062C896.995 587.041 897.014 587.016 897.028 586.988C897.041 586.96 897.049 586.93 897.05 586.899C897.052 586.868 897.047 586.837 897.037 586.808C897.027 586.778 897.011 586.752 896.99 586.728L896.446 586.149C896.424 586.126 896.398 586.108 896.37 586.095C896.341 586.083 896.31 586.076 896.279 586.076C896.247 586.076 896.216 586.083 896.188 586.095C896.159 586.108 896.133 586.126 896.112 586.149C896.072 586.191 896.049 586.246 896.045 586.304C896.042 586.362 896.059 586.419 896.094 586.465Z" fill="#644BBF"/>
<path d="M867.904 573.256C867.744 572.883 867.738 572.462 867.886 572.084C868.033 571.706 868.324 571.402 868.695 571.236C868.971 571.116 869.278 571.081 869.575 571.135C869.872 571.189 870.146 571.329 870.363 571.539C870.58 571.748 870.73 572.017 870.795 572.312C870.859 572.607 870.835 572.914 870.725 573.195C870.615 573.476 870.424 573.719 870.177 573.891C869.93 574.064 869.637 574.16 869.335 574.166C869.033 574.173 868.736 574.09 868.482 573.928C868.227 573.766 868.026 573.532 867.904 573.256ZM868.343 573.063C868.455 573.319 868.664 573.521 868.924 573.623C869.185 573.725 869.475 573.719 869.731 573.608C869.987 573.496 870.188 573.287 870.291 573.026C870.393 572.766 870.387 572.476 870.275 572.22C870.16 571.967 869.951 571.768 869.692 571.667C869.433 571.565 869.145 571.568 868.888 571.675C868.761 571.731 868.646 571.811 868.55 571.91C868.454 572.01 868.379 572.128 868.328 572.256C868.278 572.385 868.253 572.523 868.255 572.661C868.258 572.8 868.288 572.936 868.343 573.063Z" fill="#644BBF"/>
<path d="M871.629 566.107C871.686 566.081 871.731 566.033 871.754 565.974C871.777 565.915 871.776 565.85 871.752 565.791L871.436 565.054C871.403 565.009 871.355 564.976 871.301 564.962C871.247 564.948 871.19 564.952 871.139 564.975C871.088 564.997 871.046 565.036 871.02 565.086C870.994 565.135 870.986 565.192 870.997 565.247L871.313 565.984C871.34 566.042 871.388 566.086 871.446 566.109C871.505 566.132 871.571 566.131 871.629 566.107Z" fill="#644BBF"/>
<path d="M872.261 566.353L872.981 566.037C873.039 566.01 873.083 565.963 873.106 565.904C873.129 565.845 873.128 565.779 873.104 565.721C873.081 565.665 873.036 565.621 872.98 565.598C872.924 565.575 872.862 565.575 872.806 565.598L872.068 565.914C872.032 565.921 871.998 565.936 871.968 565.959C871.938 565.981 871.914 566.009 871.897 566.042C871.88 566.074 871.871 566.11 871.869 566.147C871.868 566.184 871.875 566.221 871.89 566.255C871.905 566.288 871.927 566.318 871.955 566.342C871.983 566.366 872.016 566.384 872.052 566.393C872.088 566.403 872.125 566.404 872.161 566.397C872.197 566.39 872.232 566.375 872.261 566.353Z" fill="#644BBF"/>
<path d="M872.35 567.741C872.407 567.714 872.452 567.666 872.475 567.607C872.497 567.548 872.497 567.483 872.473 567.425L872.157 566.705C872.123 566.66 872.076 566.627 872.022 566.613C871.968 566.599 871.911 566.603 871.86 566.626C871.809 566.648 871.767 566.687 871.741 566.737C871.715 566.786 871.707 566.843 871.717 566.898L872.034 567.618C872.06 567.675 872.108 567.72 872.167 567.743C872.226 567.766 872.291 567.765 872.35 567.741Z" fill="#644BBF"/>
<path d="M870.609 567.074L871.347 566.74C871.375 566.728 871.4 566.711 871.421 566.69C871.442 566.669 871.459 566.644 871.47 566.616C871.482 566.588 871.488 566.559 871.488 566.529C871.488 566.499 871.482 566.469 871.47 566.441C871.443 566.384 871.395 566.339 871.337 566.316C871.278 566.294 871.212 566.294 871.154 566.318L870.416 566.634C870.371 566.668 870.339 566.715 870.325 566.769C870.31 566.823 870.315 566.88 870.337 566.931C870.36 566.982 870.399 567.024 870.448 567.05C870.498 567.076 870.555 567.084 870.609 567.074Z" fill="#644BBF"/>
<path d="M884.805 602.994H885.016C885.29 603.092 885.591 603.086 885.86 602.975C886.129 602.865 886.348 602.659 886.474 602.397L886.579 602.186C886.609 602.132 886.658 602.091 886.717 602.072C886.776 602.052 886.839 602.055 886.896 602.081C886.923 602.092 886.948 602.109 886.97 602.13C886.991 602.151 887.008 602.177 887.019 602.204C887.03 602.232 887.036 602.262 887.036 602.292C887.036 602.322 887.03 602.352 887.019 602.379V602.59C886.932 602.869 886.946 603.169 887.059 603.439C887.171 603.709 887.374 603.93 887.633 604.065H887.827C887.881 604.095 887.923 604.143 887.946 604.201C887.968 604.259 887.97 604.323 887.95 604.382C887.926 604.437 887.882 604.482 887.826 604.505C887.77 604.528 887.707 604.528 887.651 604.505H887.423C887.146 604.419 886.848 604.434 886.582 604.546C886.315 604.659 886.097 604.862 885.965 605.119L885.859 605.313C885.836 605.371 885.791 605.417 885.733 605.442C885.675 605.467 885.61 605.468 885.552 605.444C885.494 605.421 885.447 605.376 885.422 605.318C885.398 605.26 885.397 605.195 885.42 605.137V604.909C885.515 604.634 885.506 604.335 885.396 604.067C885.286 603.799 885.083 603.58 884.823 603.451L884.612 603.345C884.559 603.319 884.519 603.273 884.499 603.217C884.48 603.162 884.482 603.1 884.507 603.047C884.544 603.006 884.593 602.978 884.647 602.969C884.701 602.959 884.757 602.968 884.805 602.994ZM886.755 604.065C886.573 603.831 886.458 603.552 886.421 603.257C886.191 603.446 885.91 603.562 885.613 603.591C885.796 603.825 885.911 604.105 885.947 604.399C886.189 604.23 886.465 604.116 886.755 604.065Z" fill="#644BBF"/>
<path d="M876.425 602.414C876.625 602.48 876.809 602.587 876.966 602.728C877.123 602.868 877.25 603.04 877.337 603.231C877.425 603.423 877.472 603.631 877.475 603.842C877.478 604.053 877.438 604.262 877.357 604.456C877.275 604.651 877.154 604.826 877.002 604.972C876.849 605.117 876.668 605.23 876.47 605.302C876.272 605.374 876.061 605.404 875.851 605.391C875.641 605.378 875.435 605.321 875.248 605.225C875.048 605.159 874.863 605.052 874.706 604.912C874.549 604.771 874.423 604.599 874.335 604.408C874.248 604.216 874.201 604.008 874.197 603.797C874.194 603.587 874.234 603.377 874.316 603.183C874.397 602.989 874.518 602.813 874.671 602.668C874.823 602.522 875.004 602.41 875.202 602.337C875.4 602.265 875.611 602.235 875.821 602.248C876.032 602.261 876.237 602.318 876.425 602.414ZM876.249 602.854C876.057 602.772 875.844 602.749 875.639 602.788C875.434 602.827 875.245 602.926 875.096 603.073C874.947 603.22 874.845 603.408 874.804 603.612C874.762 603.817 874.782 604.03 874.861 604.223C874.94 604.417 875.076 604.582 875.249 604.698C875.423 604.815 875.627 604.877 875.836 604.877C876.045 604.877 876.249 604.815 876.423 604.699C876.597 604.582 876.732 604.417 876.811 604.224C876.916 603.97 876.915 603.685 876.81 603.431C876.704 603.177 876.503 602.976 876.249 602.871V602.854Z" fill="#644BBF"/>
<path d="M881.22 608.632C881.196 608.691 881.195 608.756 881.218 608.815C881.241 608.874 881.285 608.922 881.343 608.948L882.08 609.265C882.139 609.282 882.202 609.278 882.257 609.252C882.312 609.226 882.355 609.18 882.379 609.124C882.403 609.066 882.404 609 882.381 608.941C882.358 608.883 882.313 608.835 882.256 608.808L881.518 608.509C881.491 608.495 881.461 608.487 881.43 608.486C881.399 608.484 881.369 608.489 881.34 608.501C881.312 608.513 881.286 608.531 881.265 608.553C881.245 608.576 881.229 608.603 881.22 608.632Z" fill="#644BBF"/>
<path d="M880.588 608.896L880.29 609.633C880.275 609.661 880.267 609.691 880.266 609.722C880.264 609.752 880.27 609.783 880.281 609.811C880.293 609.84 880.311 609.865 880.334 609.886C880.356 609.907 880.383 609.923 880.413 609.932C880.471 609.956 880.536 609.957 880.595 609.934C880.654 609.911 880.702 609.866 880.729 609.809L881.027 609.071C881.042 609.044 881.05 609.014 881.051 608.983C881.053 608.953 881.047 608.922 881.036 608.893C881.024 608.865 881.006 608.839 880.983 608.819C880.961 608.798 880.934 608.782 880.904 608.773C880.846 608.749 880.781 608.748 880.722 608.771C880.663 608.794 880.615 608.839 880.588 608.896Z" fill="#644BBF"/>
<path d="M879.553 607.947C879.53 608.008 879.532 608.075 879.558 608.134C879.585 608.193 879.633 608.24 879.694 608.263L880.414 608.562C880.468 608.573 880.525 608.564 880.575 608.539C880.624 608.513 880.663 608.471 880.686 608.42C880.708 608.369 880.713 608.311 880.698 608.257C880.684 608.204 880.652 608.156 880.607 608.123L879.869 607.824C879.811 607.8 879.745 607.8 879.687 607.823C879.628 607.845 879.58 607.89 879.553 607.947Z" fill="#644BBF"/>
<path d="M881.274 607.245L880.975 607.965C880.965 608.02 880.973 608.076 880.999 608.126C881.025 608.175 881.066 608.215 881.118 608.237C881.169 608.259 881.226 608.264 881.28 608.25C881.334 608.235 881.381 608.203 881.414 608.158L881.713 607.42C881.737 607.362 881.738 607.297 881.715 607.238C881.692 607.179 881.647 607.131 881.59 607.104C881.529 607.081 881.462 607.083 881.403 607.109C881.344 607.136 881.297 607.184 881.274 607.245Z" fill="#644BBF"/>
<path d="M451.584 715.128C444.558 715.128 439.289 724.086 429.382 722.716C419.476 721.346 412.555 728.442 417.087 734.836C421.619 741.229 435.495 747.131 450.653 739.385C465.812 731.639 462.176 715.163 451.584 715.128Z" fill="#F4B3A2"/>
<path d="M455.41 736.206C452.948 736.163 450.534 735.511 448.384 734.309C439.602 729.39 430.626 733.395 432.576 741.036C432.737 741.672 432.948 742.295 433.208 742.898C439.245 743.437 445.309 742.217 450.668 739.385C452.376 738.528 453.969 737.46 455.41 736.206Z" fill="#F09A83"/>
<path d="M450.616 739.42C456.957 736.188 459.996 731.428 460.628 726.984C455.798 738.436 440.025 742.793 430.944 741.036C421.863 739.28 417.068 734.941 415.838 729.232C415.597 730.214 415.581 731.237 415.791 732.225C416.001 733.214 416.431 734.142 417.05 734.941C421.67 741.177 435.511 747.113 450.616 739.42Z" fill="#F09A83"/>
<path d="M473.453 735.345C467.007 732.763 458.734 739.121 450.021 734.203C441.309 729.285 432.263 733.307 434.213 740.931C436.163 748.554 446.79 759.128 463.74 757.547C480.69 755.966 483.219 739.279 473.453 735.345Z" fill="#F4B3A2"/>
<path d="M478.826 746.147C477.737 751.417 472.749 756.686 463.598 757.547C446.665 759.128 435.951 748.554 434.089 740.93C433.665 739.394 433.776 737.758 434.405 736.293C434.299 737.246 434.365 738.209 434.598 739.139C436.478 746.744 447.175 757.336 464.125 755.738C472.222 754.982 477.07 750.767 478.826 746.147Z" fill="#F09A83"/>
</g>
<defs>
<linearGradient id="paint0_linear_2676_511" x1="-31.5" y1="-38" x2="735.5" y2="604.5" gradientUnits="userSpaceOnUse">
<stop stop-color="#2F2359" stop-opacity="0"/>
<stop offset="1" stop-color="#C8B9FF"/>
</linearGradient>
<clipPath id="clip0_2676_511">
<rect width="946" height="877" fill="white"/>
</clipPath>
</defs>
</svg>
