<svg width="1321" height="846" viewBox="0 0 1321 846" fill="none" xmlns="http://www.w3.org/2000/svg">
<path d="M93.9102 707.452V575.978H149.317C157.581 575.978 165.094 577.857 171.855 581.613C178.617 585.244 184.001 590.378 188.008 597.014C192.015 603.65 194.018 611.414 194.018 620.304C194.018 628.818 192.015 636.456 188.008 643.218C184.126 649.854 178.805 655.051 172.043 658.807C165.282 662.563 157.581 664.442 148.941 664.442H111.941V707.452H93.9102ZM111.941 648.477H146.875C152.26 648.477 157.143 647.413 161.525 645.284C166.033 643.03 169.539 639.775 172.043 635.517C174.673 631.26 175.987 626.189 175.987 620.304C175.987 614.294 174.673 609.222 172.043 605.09C169.414 600.833 165.908 597.578 161.525 595.324C157.143 593.07 152.322 591.943 147.063 591.943H111.941V648.477ZM215.136 707.452V570.344H232.415V707.452H215.136ZM299.708 709.706C290.442 709.706 282.429 707.515 275.667 703.132C268.906 698.625 263.709 692.552 260.078 684.914C256.447 677.276 254.631 668.824 254.631 659.558C254.631 650.167 256.635 641.715 260.642 634.203C264.648 626.565 270.408 620.554 277.921 616.172C285.434 611.664 294.449 609.41 304.967 609.41C315.109 609.41 323.812 611.602 331.074 615.984C338.336 620.366 343.908 626.314 347.79 633.827C351.797 641.34 353.8 649.729 353.8 658.995V707.452H336.333V687.919H335.957C334.079 691.55 331.512 695.056 328.257 698.437C325.126 701.692 321.182 704.385 316.424 706.513C311.666 708.642 306.094 709.706 299.708 709.706ZM304.216 694.868C310.477 694.868 315.986 693.366 320.744 690.361C325.627 687.23 329.384 682.973 332.013 677.589C334.768 672.08 336.145 665.944 336.145 659.183C336.145 652.546 334.831 646.599 332.201 641.34C329.697 636.081 326.066 631.949 321.307 628.944C316.549 625.813 310.977 624.248 304.592 624.248C297.83 624.248 292.008 625.813 287.124 628.944C282.366 632.074 278.672 636.331 276.043 641.715C273.539 646.974 272.286 652.985 272.286 659.746C272.286 666.257 273.539 672.205 276.043 677.589C278.547 682.848 282.178 687.043 286.936 690.173C291.695 693.303 297.454 694.868 304.216 694.868ZM417.562 745.58V708.955C410.55 707.953 404.289 705.637 398.78 702.006C393.396 698.249 389.139 693.428 386.008 687.543C382.878 681.533 381.313 674.709 381.313 667.071V611.664H398.78V666.883C398.78 672.643 400.032 677.652 402.536 681.909C405.041 686.041 408.359 689.234 412.491 691.488C416.748 693.741 421.256 694.868 426.014 694.868C430.897 694.868 435.405 693.741 439.537 691.488C443.794 689.234 447.175 686.041 449.679 681.909C452.309 677.652 453.623 672.643 453.623 666.883V611.664H470.903V667.071C470.903 674.709 469.338 681.47 466.207 687.356C463.202 693.241 458.945 698.061 453.436 701.818C448.051 705.449 441.853 707.828 434.841 708.955V745.58H417.562ZM514.674 707.452C510.041 707.452 506.034 706.513 502.653 704.635C499.272 702.632 496.706 700.065 494.953 696.934C493.2 693.804 492.323 690.298 492.323 686.416C492.323 682.66 493.262 679.029 495.14 675.523C497.019 671.892 499.648 668.887 503.029 666.508L545.852 635.893C549.984 632.888 553.114 629.444 555.243 625.563C557.371 621.681 558.436 617.737 558.436 613.73C558.436 609.473 557.434 605.779 555.431 602.649C553.427 599.393 550.485 596.826 546.603 594.948C542.847 592.945 538.214 591.943 532.704 591.943H498.709V575.978H534.583C543.473 575.978 550.986 577.731 557.121 581.237C563.382 584.618 568.14 589.188 571.395 594.948C574.776 600.583 576.466 606.843 576.466 613.73C576.466 620.617 574.839 627.065 571.583 633.076C568.453 638.961 563.507 644.22 556.745 648.852L514.11 678.528C512.858 679.279 511.856 680.281 511.105 681.533C510.479 682.66 510.166 683.85 510.166 685.102C510.166 686.98 510.792 688.545 512.044 689.797C513.422 690.924 515.3 691.488 517.679 691.488H579.659V707.452H514.674ZM699.629 748.773C693.369 748.773 687.797 747.521 682.915 745.016C678.157 742.637 674.4 739.069 671.645 734.311C668.891 729.552 667.513 723.855 667.513 717.219C667.513 715.591 667.576 713.901 667.701 712.148C667.826 710.52 668.014 708.83 668.265 707.077C657.997 707.703 648.481 706.513 639.716 703.508C630.951 700.503 623.313 696.058 616.802 690.173C610.291 684.163 605.22 676.963 601.589 668.574C597.957 660.059 596.142 650.731 596.142 640.588C596.142 631.323 597.707 622.683 600.837 614.669C603.968 606.53 608.475 599.393 614.36 593.258C620.245 587.122 627.32 582.364 635.584 578.983C643.973 575.478 653.239 573.725 663.381 573.725C673.524 573.725 682.727 575.415 690.99 578.796C699.254 582.176 706.328 586.935 712.213 593.07C718.098 599.08 722.606 606.03 725.736 613.918C728.992 621.806 730.62 630.321 730.62 639.461V715.153C730.62 721.914 729.367 727.799 726.863 732.808C724.359 737.942 720.79 741.886 716.157 744.641C711.65 747.395 706.14 748.773 699.629 748.773ZM698.502 732.62C702.634 732.62 706.015 731.118 708.645 728.113C711.274 725.233 712.589 721.038 712.589 715.529V670.827C707.08 674.083 702.509 677.589 698.878 681.345C695.247 684.977 692.367 688.733 690.238 692.615C688.235 696.371 686.796 700.19 685.92 704.072C685.043 707.828 684.605 711.584 684.605 715.341C684.605 718.972 685.231 722.04 686.483 724.544C687.859 727.173 689.612 729.177 691.741 730.554C693.87 731.932 696.123 732.62 698.502 732.62ZM663.381 691.675C665.385 691.675 667.263 691.613 669.016 691.488C670.769 691.237 672.647 690.862 674.651 690.361C676.404 686.103 678.845 681.784 681.976 677.401C685.231 673.019 689.299 668.699 694.183 664.442C699.191 660.059 705.327 655.99 712.589 652.233V639.461C712.589 632.324 711.337 625.751 708.833 619.74C706.453 613.605 703.01 608.346 698.502 603.964C694.12 599.456 688.924 595.95 682.915 593.446C676.904 590.816 670.393 589.501 663.381 589.501C656.244 589.501 649.671 590.816 643.66 593.446C637.775 595.95 632.579 599.518 628.071 604.151C623.689 608.784 620.245 614.231 617.741 620.492C615.362 626.627 614.173 633.326 614.173 640.588C614.173 647.851 615.362 654.612 617.741 660.873C620.245 667.008 623.689 672.393 628.071 677.025C632.579 681.658 637.775 685.29 643.66 687.919C649.671 690.423 656.244 691.675 663.381 691.675ZM796.219 709.706C786.953 709.706 778.939 707.515 772.178 703.132C765.416 698.625 760.22 692.552 756.589 684.914C752.958 677.276 751.142 668.824 751.142 659.558C751.142 650.167 753.146 641.715 757.152 634.203C761.159 626.565 766.919 620.554 774.432 616.172C781.945 611.664 790.96 609.41 801.478 609.41C811.62 609.41 820.322 611.602 827.585 615.984C834.847 620.366 840.419 626.314 844.301 633.827C848.308 641.34 850.311 649.729 850.311 658.995V707.452H832.844V687.919H832.468C830.59 691.55 828.023 695.056 824.767 698.437C821.637 701.692 817.693 704.385 812.935 706.513C808.177 708.642 802.605 709.706 796.219 709.706ZM800.727 694.868C806.987 694.868 812.497 693.366 817.255 690.361C822.138 687.23 825.894 682.973 828.524 677.589C831.279 672.08 832.656 665.944 832.656 659.183C832.656 652.546 831.341 646.599 828.712 641.34C826.207 636.081 822.576 631.949 817.818 628.944C813.06 625.813 807.488 624.248 801.102 624.248C794.341 624.248 788.518 625.813 783.635 628.944C778.877 632.074 775.183 636.331 772.554 641.715C770.049 646.974 768.797 652.985 768.797 659.746C768.797 666.257 770.049 672.205 772.554 677.589C775.058 682.848 778.689 687.043 783.447 690.173C788.205 693.303 793.965 694.868 800.727 694.868ZM910.507 707.452C901.993 707.452 895.294 705.011 890.411 700.127C885.652 695.244 883.273 688.608 883.273 680.218V587.623H900.553V679.091C900.553 683.224 901.68 686.542 903.934 689.046C906.313 691.425 909.568 692.615 913.7 692.615H933.046V707.452H910.507ZM866.745 626.502V611.664H933.421V626.502H866.745ZM954.313 707.452V570.344H971.593V624.06C975.474 619.052 980.17 615.358 985.679 612.979C991.314 610.6 997.136 609.41 1003.15 609.41C1011.66 609.41 1019.05 611.226 1025.31 614.857C1031.57 618.363 1036.45 623.309 1039.96 629.695C1043.46 636.081 1045.22 643.531 1045.22 652.045V707.452H1027.94V652.233C1027.94 646.473 1026.62 641.527 1023.99 637.395C1021.36 633.138 1017.86 629.883 1013.48 627.629C1009.22 625.375 1004.65 624.248 999.766 624.248C994.882 624.248 990.312 625.375 986.055 627.629C981.797 629.757 978.292 632.888 975.537 637.02C972.907 641.152 971.593 646.098 971.593 651.858V707.452H954.313ZM1121.26 707.452C1110.74 707.452 1101.41 705.512 1093.27 701.63C1085.14 697.623 1078.75 692.051 1074.12 684.914C1069.61 677.651 1067.36 669.2 1067.36 659.558C1067.36 650.042 1069.3 641.527 1073.18 634.015C1077.06 626.377 1082.44 620.366 1089.33 615.984C1096.22 611.602 1104.23 609.41 1113.37 609.41C1123.26 609.41 1131.46 611.539 1137.98 615.796C1144.61 620.053 1149.56 625.813 1152.81 633.076C1156.07 640.213 1157.7 648.226 1157.7 657.117C1157.7 658.494 1157.63 659.934 1157.51 661.436C1157.51 662.939 1157.38 664.254 1157.13 665.381H1085.76C1086.39 671.266 1088.33 676.274 1091.58 680.406C1094.84 684.413 1098.97 687.481 1103.98 689.609C1109.11 691.613 1114.75 692.615 1120.88 692.615H1145.86V707.452H1121.26ZM1085.57 653.172H1140.23C1140.23 650.793 1139.98 648.289 1139.48 645.66C1138.98 642.905 1138.1 640.275 1136.85 637.771C1135.6 635.142 1133.91 632.825 1131.78 630.822C1129.77 628.693 1127.21 627.003 1124.08 625.751C1121.07 624.498 1117.5 623.872 1113.37 623.872C1108.99 623.872 1105.11 624.749 1101.73 626.502C1098.47 628.13 1095.65 630.384 1093.27 633.263C1090.9 636.018 1089.08 639.148 1087.83 642.654C1086.58 646.16 1085.82 649.666 1085.57 653.172ZM1179.16 707.452V638.898C1179.16 630.384 1181.54 623.747 1186.3 618.989C1191.19 614.106 1197.88 611.664 1206.4 611.664H1226.12V626.502H1209.59C1205.46 626.502 1202.2 627.691 1199.83 630.07C1197.57 632.45 1196.44 635.768 1196.44 640.025V707.452H1179.16Z" fill="white"/>
<path d="M237.342 528.013C252.859 534.173 267.281 536.302 280.606 534.411C293.499 532.702 304.865 528.05 314.703 520.462C324.231 512.749 331.274 503.145 335.832 491.663C338.419 485.146 340.353 478.015 341.635 470.258C342.482 462.692 342.806 455.995 342.605 450.167C357.245 453.104 372.249 452.413 387.614 448.094C403.103 443.465 417.59 435.025 431.074 422.774C444.559 410.524 455.243 394.467 463.127 374.605C470.764 355.363 474.527 336.38 474.415 317.655C474.117 298.497 470.318 280.464 463.018 263.556C455.719 246.648 445.355 231.577 431.927 218.344C418.189 204.988 401.699 194.49 382.457 186.853C357.319 176.875 334.306 173.309 313.419 176.154C292.654 178.689 274.445 186.55 258.793 199.736C243.141 212.923 230.942 230.534 222.196 252.568C220.471 256.913 218.995 261.536 217.768 266.438C216.354 270.906 215.033 275.59 213.806 280.492L184.576 411.151C180.348 429.949 179.65 447.095 182.481 462.589C185.312 478.084 191.392 491.275 200.722 502.163C209.928 513.357 222.134 521.978 237.342 528.013ZM254.799 482.673C245.179 478.854 239.334 472.762 237.266 464.398C234.764 456.219 234.832 446.546 237.468 435.378L257.783 344.829C261.644 351.391 265.632 358.542 269.744 366.282C273.98 373.711 277.815 381.7 281.248 390.247C284.493 398.361 287.089 406.756 289.034 415.431C291.102 423.797 292.271 432.164 292.542 440.534C292.502 448.78 291.003 456.628 288.047 464.079C284.967 471.836 280.673 477.677 275.165 481.596C269.347 485.39 262.558 485.753 254.799 482.673ZM333.35 397.457C328.474 382.588 320.899 366.828 310.624 350.176C300.162 333.091 286.072 315.643 268.354 297.833L271.296 284.99C272.094 282.074 272.925 279.53 273.787 277.357C274.462 274.751 275.292 272.206 276.278 269.724C281.452 256.689 288.524 246.564 297.496 239.347C306.467 232.131 316.904 228.011 328.806 226.988C340.398 225.841 352.866 227.916 366.211 233.213C381.418 239.249 393.379 248.487 402.092 260.927C410.619 272.933 415.647 286.964 417.178 303.019C418.521 318.641 415.805 334.986 409.03 352.055C404.102 364.469 397.929 374.592 390.509 382.424C382.903 389.822 374.266 394.837 364.6 397.467C354.935 400.096 344.518 400.093 333.35 397.457Z" fill="white"/>
<path d="M983.764 540.031C967.906 545.252 953.381 546.511 940.19 543.825C927.424 541.346 916.362 536.024 906.99 527.86C897.943 519.583 891.488 509.585 887.625 497.846C885.434 491.185 883.932 483.948 883.118 476.134C882.723 468.528 882.805 461.823 883.349 456.018C868.562 458.073 853.63 456.484 838.548 451.253C823.366 445.703 809.411 436.411 796.683 423.375C783.955 410.338 774.251 393.67 767.571 373.371C761.104 353.707 758.487 334.532 759.72 315.848C761.166 296.741 766.037 278.968 774.333 262.528C782.634 246.088 793.885 231.665 808.077 219.26C822.596 206.751 839.681 197.26 859.346 190.789C885.04 182.335 908.223 180.154 928.902 184.246C949.481 188.021 967.186 196.958 982.017 211.059C996.849 225.159 1007.97 243.469 1015.38 265.988C1016.85 270.428 1018.04 275.132 1018.97 280.098C1020.11 284.643 1021.15 289.398 1022.09 294.365L1043.43 426.539C1046.53 445.558 1046.2 462.715 1042.45 478.013C1038.69 493.307 1031.83 506.111 1021.87 516.422C1012.01 527.046 999.303 534.916 983.764 540.031ZM969.052 493.727C978.887 490.49 985.085 484.762 987.652 476.535C990.638 468.521 991.152 458.861 989.186 447.555L974.336 355.952C970.085 362.271 965.677 369.17 961.107 376.649C956.436 383.811 952.129 391.555 948.191 399.882C944.466 407.787 941.367 416.011 938.907 424.554C936.34 432.781 934.674 441.063 933.904 449.401C933.447 457.635 934.474 465.56 936.978 473.173C939.589 481.099 943.527 487.185 948.786 491.429C954.37 495.568 961.126 496.338 969.052 493.727ZM895.746 403.957C901.505 389.407 910.014 374.129 921.264 358.123C932.734 341.695 947.841 325.123 966.597 308.406L964.431 295.41C963.805 292.452 963.129 289.862 962.403 287.642C961.883 285 961.207 282.41 960.368 279.873C955.986 266.552 949.531 256.021 941.01 248.28C932.489 240.539 922.316 235.801 910.496 234.067C898.995 232.227 886.423 233.552 872.788 238.04C857.243 243.154 844.752 251.658 835.311 263.554C826.077 275.028 820.217 288.732 817.731 304.667C815.453 320.179 817.187 336.658 822.922 354.103C827.097 366.789 832.657 377.264 839.594 385.527C846.743 393.368 855.064 398.89 864.555 402.095C874.046 405.299 884.445 405.92 895.746 403.957Z" fill="white"/>
<path d="M550.187 444.507C532.49 444.507 518.634 439.666 508.617 429.983C498.933 420.299 494.092 407.444 494.092 391.417C494.092 380.732 496.763 369.88 502.105 358.861C507.782 347.843 518.634 337.158 534.661 326.807L658.872 246.169C669.223 239.158 677.571 230.977 683.915 221.628C690.257 212.279 693.431 202.262 693.431 191.576C693.431 177.553 688.423 166.701 678.406 159.021C668.722 151.341 654.532 147.501 635.833 147.501H548.184L556.698 93.9102H640.842C666.218 93.9102 687.089 97.917 703.448 105.931C719.808 113.944 731.997 124.963 740.011 138.987C748.024 152.677 752.031 168.036 752.031 185.065C752.031 209.774 745.852 230.977 733.5 248.674C721.147 266.036 705.283 281.062 685.919 293.751L570.221 368.878C567.55 370.548 565.547 372.552 564.211 374.889C562.876 376.892 562.208 379.063 562.208 381.4C562.208 384.405 563.21 386.909 565.213 388.913C567.55 390.916 570.89 391.918 575.23 391.918L731.496 390.916L724.484 444.507H550.187Z" fill="white"/>
</svg>
