<svg width="20" height="20" viewBox="0 0 20 20" fill="none" xmlns="http://www.w3.org/2000/svg">
<path d="M9.60404 1.91252C9.64056 1.83874 9.69697 1.77663 9.76692 1.73321C9.83686 1.68979 9.91755 1.66678 9.99987 1.66678C10.0822 1.66678 10.1629 1.68979 10.2328 1.73321C10.3028 1.77663 10.3592 1.83874 10.3957 1.91252L12.3207 5.81169C12.4475 6.06833 12.6347 6.29036 12.8662 6.45873C13.0977 6.62711 13.3666 6.73678 13.6499 6.77836L17.9549 7.40836C18.0364 7.42018 18.1131 7.45458 18.1761 7.50769C18.2391 7.5608 18.2861 7.63048 18.3116 7.70886C18.337 7.78724 18.3401 7.8712 18.3204 7.95122C18.3006 8.03125 18.2589 8.10415 18.1999 8.16169L15.0865 11.1934C14.8812 11.3934 14.7276 11.6404 14.6389 11.913C14.5502 12.1857 14.5291 12.4758 14.5774 12.7584L15.3124 17.0417C15.3268 17.1232 15.318 17.2072 15.287 17.2839C15.2559 17.3607 15.204 17.4272 15.137 17.4759C15.07 17.5245 14.9907 17.5534 14.9081 17.5591C14.8255 17.5649 14.743 17.5473 14.6699 17.5084L10.8215 15.485C10.568 15.3519 10.2859 15.2823 9.99946 15.2823C9.71306 15.2823 9.43094 15.3519 9.17737 15.485L5.32987 17.5084C5.25681 17.547 5.17437 17.5644 5.09191 17.5586C5.00946 17.5527 4.9303 17.5238 4.86345 17.4752C4.7966 17.4266 4.74473 17.3602 4.71375 17.2835C4.68277 17.2069 4.67392 17.1231 4.68821 17.0417L5.42237 12.7592C5.47087 12.4765 5.44986 12.1862 5.36115 11.9134C5.27245 11.6406 5.11871 11.3935 4.91321 11.1934L1.79987 8.16252C1.74037 8.10505 1.6982 8.03202 1.67817 7.95175C1.65815 7.87148 1.66107 7.7872 1.6866 7.70852C1.71214 7.62983 1.75926 7.55989 1.8226 7.50668C1.88594 7.45346 1.96296 7.41911 2.04487 7.40752L6.34904 6.77836C6.63259 6.73711 6.90186 6.62757 7.13369 6.45918C7.36552 6.29079 7.55296 6.06858 7.67987 5.81169L9.60404 1.91252Z" stroke="#F5C73D" stroke-width="1.66667" stroke-linecap="round" stroke-linejoin="round"/>
</svg>
