<svg width="109" height="63" viewBox="0 0 109 63" fill="none" xmlns="http://www.w3.org/2000/svg">
<path d="M0.888672 58.9629V46.5185H6.13312C6.91534 46.5185 7.62645 46.6963 8.26645 47.0518C8.90645 47.3955 9.41608 47.8815 9.79534 48.5096C10.1746 49.1378 10.3642 49.8726 10.3642 50.7141C10.3642 51.52 10.1746 52.243 9.79534 52.883C9.42793 53.5111 8.92423 54.0029 8.28423 54.3585C7.64423 54.7141 6.91534 54.8918 6.09756 54.8918H2.59534V58.9629H0.888672ZM2.59534 53.3807H5.902C6.41163 53.3807 6.87386 53.28 7.28867 53.0785C7.71534 52.8652 8.04719 52.557 8.28423 52.1541C8.53312 51.7511 8.65756 51.2711 8.65756 50.7141C8.65756 50.1452 8.53312 49.6652 8.28423 49.2741C8.03534 48.8711 7.70349 48.5629 7.28867 48.3496C6.87386 48.1363 6.41756 48.0296 5.91978 48.0296H2.59534V53.3807ZM12.3631 58.9629V45.9852H13.9987V58.9629H12.3631ZM20.3681 59.1763C19.4911 59.1763 18.7326 58.9689 18.0926 58.5541C17.4526 58.1274 16.9607 57.5526 16.617 56.8296C16.2733 56.1066 16.1015 55.3067 16.1015 54.4296C16.1015 53.5407 16.2911 52.7407 16.6704 52.0296C17.0496 51.3067 17.5948 50.7378 18.3059 50.3229C19.017 49.8963 19.8704 49.6829 20.8659 49.6829C21.8259 49.6829 22.6496 49.8904 23.337 50.3052C24.0244 50.72 24.5518 51.2829 24.9193 51.9941C25.2985 52.7052 25.4881 53.4992 25.4881 54.3763V58.9629H23.8348V57.1141H23.7993C23.6215 57.4578 23.3785 57.7896 23.0704 58.1096C22.7741 58.4178 22.4007 58.6726 21.9504 58.8741C21.5 59.0755 20.9726 59.1763 20.3681 59.1763ZM20.7948 57.7718C21.3874 57.7718 21.9089 57.6296 22.3593 57.3452C22.8215 57.0489 23.177 56.6459 23.4259 56.1363C23.6867 55.6148 23.817 55.0341 23.817 54.3941C23.817 53.7659 23.6926 53.2029 23.4437 52.7052C23.2067 52.2074 22.863 51.8163 22.4126 51.5318C21.9622 51.2355 21.4348 51.0874 20.8304 51.0874C20.1904 51.0874 19.6392 51.2355 19.177 51.5318C18.7267 51.8281 18.377 52.2311 18.1281 52.7407C17.8911 53.2385 17.7726 53.8074 17.7726 54.4474C17.7726 55.0637 17.8911 55.6266 18.1281 56.1363C18.3652 56.6341 18.7089 57.0311 19.1592 57.3274C19.6096 57.6237 20.1548 57.7718 20.7948 57.7718ZM31.5234 62.5718V59.1052C30.8597 59.0104 30.2671 58.7911 29.7456 58.4474C29.236 58.0918 28.833 57.6355 28.5367 57.0785C28.2404 56.5096 28.0923 55.8637 28.0923 55.1407V49.8963H29.7456V55.1229C29.7456 55.6681 29.8641 56.1422 30.1012 56.5452C30.3382 56.9363 30.6523 57.2385 31.0434 57.4518C31.4464 57.6652 31.873 57.7718 32.3234 57.7718C32.7856 57.7718 33.2123 57.6652 33.6034 57.4518C34.0064 57.2385 34.3264 56.9363 34.5634 56.5452C34.8123 56.1422 34.9367 55.6681 34.9367 55.1229V49.8963H36.5723V55.1407C36.5723 55.8637 36.4241 56.5037 36.1278 57.0607C35.8434 57.6178 35.4404 58.0741 34.919 58.4296C34.4093 58.7733 33.8227 58.9985 33.159 59.1052V62.5718H31.5234ZM40.7153 58.9629C40.2768 58.9629 39.8976 58.8741 39.5776 58.6963C39.2576 58.5067 39.0146 58.2637 38.8487 57.9674C38.6827 57.6711 38.5998 57.3392 38.5998 56.9718C38.5998 56.6163 38.6887 56.2726 38.8665 55.9407C39.0442 55.597 39.2931 55.3126 39.6131 55.0874L43.6665 52.1896C44.0576 51.9052 44.3539 51.5792 44.5553 51.2118C44.7568 50.8444 44.8576 50.4711 44.8576 50.0918C44.8576 49.6889 44.7627 49.3392 44.5731 49.0429C44.3835 48.7348 44.105 48.4918 43.7376 48.3141C43.382 48.1244 42.9435 48.0296 42.422 48.0296H39.2042V46.5185H42.5998C43.4413 46.5185 44.1524 46.6844 44.7331 47.0163C45.3257 47.3363 45.7761 47.7689 46.0842 48.3141C46.4042 48.8474 46.5642 49.44 46.5642 50.0918C46.5642 50.7437 46.4102 51.3541 46.102 51.9229C45.8057 52.48 45.3376 52.9778 44.6976 53.4163L40.662 56.2252C40.5435 56.2963 40.4487 56.3911 40.3776 56.5096C40.3183 56.6163 40.2887 56.7289 40.2887 56.8474C40.2887 57.0252 40.3479 57.1733 40.4664 57.2918C40.5968 57.3985 40.7746 57.4518 40.9998 57.4518H46.8665V58.9629H40.7153ZM58.222 62.8741C57.6294 62.8741 57.102 62.7555 56.6399 62.5185C56.1895 62.2933 55.834 61.9555 55.5732 61.5052C55.3125 61.0548 55.1821 60.5155 55.1821 59.8874C55.1821 59.7333 55.188 59.5733 55.1999 59.4074C55.2118 59.2533 55.2295 59.0933 55.2532 58.9274C54.2814 58.9867 53.3806 58.8741 52.551 58.5896C51.7214 58.3052 50.9984 57.8844 50.3821 57.3274C49.7658 56.7585 49.2858 56.077 48.9421 55.2829C48.5984 54.477 48.4266 53.5941 48.4266 52.6341C48.4266 51.757 48.5747 50.9392 48.871 50.1807C49.1673 49.4104 49.594 48.7348 50.151 48.1541C50.7081 47.5733 51.3777 47.1229 52.1599 46.8029C52.954 46.4711 53.831 46.3052 54.791 46.3052C55.751 46.3052 56.6221 46.4652 57.4042 46.7852C58.1865 47.1052 58.8561 47.5555 59.4131 48.1363C59.9702 48.7052 60.3968 49.3629 60.6931 50.1096C61.0013 50.8563 61.1553 51.6622 61.1553 52.5274V59.6918C61.1553 60.3318 61.0368 60.8889 60.7998 61.3629C60.5627 61.8489 60.225 62.2222 59.7864 62.4829C59.3598 62.7437 58.8383 62.8741 58.222 62.8741ZM58.1153 61.3452C58.5065 61.3452 58.8265 61.2029 59.0753 60.9185C59.3242 60.6459 59.4487 60.2489 59.4487 59.7274V55.4963C58.9272 55.8044 58.4946 56.1363 58.1509 56.4918C57.8072 56.8355 57.5346 57.1911 57.3331 57.5585C57.1435 57.9141 57.0073 58.2755 56.9243 58.643C56.8414 58.9985 56.7999 59.3541 56.7999 59.7096C56.7999 60.0533 56.8592 60.3437 56.9777 60.5807C57.1079 60.8296 57.2739 61.0192 57.4753 61.1496C57.6768 61.28 57.8902 61.3452 58.1153 61.3452ZM54.791 57.4696C54.9806 57.4696 55.1584 57.4637 55.3243 57.4518C55.4903 57.4281 55.668 57.3926 55.8577 57.3452C56.0236 56.9422 56.2547 56.5333 56.551 56.1185C56.8592 55.7037 57.2442 55.2948 57.7065 54.8918C58.1805 54.477 58.7613 54.0918 59.4487 53.7363V52.5274C59.4487 51.8518 59.3302 51.2296 59.0931 50.6607C58.8679 50.08 58.542 49.5822 58.1153 49.1674C57.7005 48.7407 57.2087 48.4089 56.6399 48.1718C56.071 47.9229 55.4547 47.7985 54.791 47.7985C54.1155 47.7985 53.4932 47.9229 52.9243 48.1718C52.3673 48.4089 51.8755 48.7467 51.4488 49.1852C51.034 49.6237 50.7081 50.1392 50.471 50.7318C50.2458 51.3126 50.1332 51.9467 50.1332 52.6341C50.1332 53.3215 50.2458 53.9615 50.471 54.5541C50.7081 55.1348 51.034 55.6444 51.4488 56.0829C51.8755 56.5215 52.3673 56.8652 52.9243 57.1141C53.4932 57.3511 54.1155 57.4696 54.791 57.4696ZM67.3645 59.1763C66.4875 59.1763 65.729 58.9689 65.089 58.5541C64.449 58.1274 63.9571 57.5526 63.6134 56.8296C63.2697 56.1066 63.0979 55.3067 63.0979 54.4296C63.0979 53.5407 63.2875 52.7407 63.6667 52.0296C64.046 51.3067 64.5912 50.7378 65.3023 50.3229C66.0134 49.8963 66.8667 49.6829 67.8623 49.6829C68.8223 49.6829 69.646 49.8904 70.3334 50.3052C71.0208 50.72 71.5482 51.2829 71.9156 51.9941C72.2949 52.7052 72.4845 53.4992 72.4845 54.3763V58.9629H70.8312V57.1141H70.7956C70.6179 57.4578 70.3749 57.7896 70.0667 58.1096C69.7704 58.4178 69.3971 58.6726 68.9467 58.8741C68.4964 59.0755 67.969 59.1763 67.3645 59.1763ZM67.7912 57.7718C68.3838 57.7718 68.9053 57.6296 69.3556 57.3452C69.8179 57.0489 70.1734 56.6459 70.4223 56.1363C70.683 55.6148 70.8134 55.0341 70.8134 54.3941C70.8134 53.7659 70.689 53.2029 70.4401 52.7052C70.203 52.2074 69.8593 51.8163 69.409 51.5318C68.9586 51.2355 68.4312 51.0874 67.8267 51.0874C67.1867 51.0874 66.6356 51.2355 66.1734 51.5318C65.723 51.8281 65.3734 52.2311 65.1245 52.7407C64.8875 53.2385 64.769 53.8074 64.769 54.4474C64.769 55.0637 64.8875 55.6266 65.1245 56.1363C65.3616 56.6341 65.7053 57.0311 66.1556 57.3274C66.606 57.6237 67.1512 57.7718 67.7912 57.7718ZM78.1823 58.9629C77.3764 58.9629 76.7423 58.7318 76.2801 58.2696C75.8297 57.8074 75.6045 57.1792 75.6045 56.3852V47.6207H77.2401V56.2785C77.2401 56.6696 77.3467 56.9837 77.5601 57.2207C77.7853 57.4459 78.0934 57.5585 78.4845 57.5585H80.3156V58.9629H78.1823ZM74.0401 51.3007V49.8963H80.3512V51.3007H74.0401ZM82.3287 58.9629V45.9852H83.9642V51.0696C84.3316 50.5955 84.7761 50.2459 85.2976 50.0207C85.8309 49.7955 86.382 49.6829 86.9509 49.6829C87.7568 49.6829 88.4561 49.8548 89.0487 50.1985C89.6413 50.5304 90.1035 50.9985 90.4353 51.6029C90.7672 52.2074 90.9331 52.9126 90.9331 53.7185V58.9629H89.2976V53.7363C89.2976 53.1911 89.1731 52.7229 88.9242 52.3318C88.6753 51.9289 88.3435 51.6207 87.9287 51.4074C87.5257 51.1941 87.0931 51.0874 86.6309 51.0874C86.1687 51.0874 85.7361 51.1941 85.3331 51.4074C84.9302 51.6089 84.5983 51.9052 84.3376 52.2963C84.0887 52.6874 83.9642 53.1555 83.9642 53.7007V58.9629H82.3287ZM98.1308 58.9629C97.1352 58.9629 96.2522 58.7792 95.4819 58.4118C94.7115 58.0326 94.107 57.5052 93.6685 56.8296C93.2419 56.1422 93.0285 55.3422 93.0285 54.4296C93.0285 53.5289 93.2122 52.7229 93.5796 52.0118C93.947 51.2889 94.4567 50.72 95.1085 50.3052C95.7604 49.8904 96.5189 49.6829 97.3841 49.6829C98.3204 49.6829 99.0967 49.8844 99.713 50.2874C100.341 50.6904 100.809 51.2355 101.117 51.9229C101.426 52.5985 101.58 53.357 101.58 54.1985C101.58 54.3289 101.574 54.4652 101.562 54.6074C101.562 54.7496 101.55 54.8741 101.526 54.9807H94.7707C94.83 55.5378 95.0137 56.0118 95.3219 56.4029C95.63 56.7822 96.0211 57.0726 96.4952 57.2741C96.9811 57.4637 97.5145 57.5585 98.0952 57.5585H100.46V58.9629H98.1308ZM94.753 53.8252H99.9263C99.9263 53.6 99.9026 53.3629 99.8552 53.1141C99.8078 52.8533 99.7248 52.6044 99.6063 52.3674C99.4878 52.1185 99.3278 51.8992 99.1263 51.7096C98.9367 51.5081 98.6937 51.3481 98.3974 51.2296C98.113 51.1111 97.7752 51.0518 97.3841 51.0518C96.9693 51.0518 96.6019 51.1348 96.2819 51.3007C95.9737 51.4548 95.707 51.6681 95.4819 51.9407C95.2567 52.2015 95.0848 52.4978 94.9663 52.8296C94.8478 53.1615 94.7767 53.4933 94.753 53.8252ZM103.612 58.9629V52.4741C103.612 51.6681 103.837 51.04 104.287 50.5896C104.749 50.1274 105.383 49.8963 106.189 49.8963H108.056V51.3007H106.492C106.101 51.3007 105.792 51.4133 105.567 51.6385C105.354 51.8637 105.247 52.1778 105.247 52.5807V58.9629H103.612Z" fill="white"/>
<path d="M14.4653 41.9781C15.9341 42.5612 17.2992 42.7627 18.5605 42.5837C19.7808 42.4219 20.8566 41.9816 21.7879 41.2634C22.6897 40.5333 23.3563 39.6243 23.7878 38.5375C24.0327 37.9206 24.2157 37.2456 24.337 36.5114C24.4173 35.7952 24.4479 35.1613 24.4288 34.6097C25.8146 34.8877 27.2347 34.8223 28.6891 34.4135C30.1552 33.9753 31.5264 33.1765 32.8027 32.0169C34.0791 30.8574 35.0904 29.3375 35.8366 27.4575C36.5595 25.6362 36.9157 23.8394 36.9051 22.067C36.8769 20.2536 36.5173 18.5467 35.8264 16.9463C35.1355 15.346 34.1545 13.9195 32.8835 12.6669C31.5831 11.4027 30.0223 10.4091 28.201 9.68616C25.8216 8.74169 23.6433 8.40415 21.6663 8.67348C19.7008 8.91342 17.9773 9.65748 16.4958 10.9056C15.0142 12.1538 13.8596 13.8207 13.0317 15.9063C12.8685 16.3176 12.7288 16.7552 12.6126 17.2191C12.4788 17.642 12.3537 18.0855 12.2376 18.5494L9.47089 30.9167C9.07065 32.696 9.00457 34.3189 9.27254 35.7855C9.54052 37.2521 10.116 38.5007 10.9991 39.5313C11.8705 40.5908 13.0259 41.4068 14.4653 41.9781ZM16.1178 37.6865C15.2071 37.325 14.6539 36.7484 14.4581 35.9567C14.2213 35.1825 14.2277 34.267 14.4773 33.2099L16.4001 24.6391C16.7656 25.2603 17.1431 25.9371 17.5323 26.6697C17.9333 27.3729 18.2962 28.1291 18.6212 28.9381C18.9284 29.7061 19.1741 30.5007 19.3582 31.3218C19.554 32.1137 19.6646 32.9057 19.6902 33.6979C19.6864 34.4785 19.5445 35.2213 19.2647 35.9265C18.9732 36.6607 18.5668 37.2136 18.0455 37.5846C17.4947 37.9437 16.8522 37.9781 16.1178 37.6865ZM23.5528 29.6205C23.0913 28.2132 22.3744 26.7214 21.4018 25.1452C20.4115 23.5281 19.0778 21.8766 17.4007 20.1908L17.6792 18.9752C17.7548 18.6991 17.8334 18.4583 17.915 18.2527C17.9789 18.006 18.0575 17.7652 18.1508 17.5302C18.6405 16.2964 19.3099 15.338 20.1591 14.6549C21.0083 13.9719 21.9962 13.5819 23.1227 13.485C24.2199 13.3765 25.4001 13.5729 26.6632 14.0743C28.1026 14.6456 29.2347 15.5201 30.0595 16.6975C30.8666 17.834 31.3425 19.162 31.4874 20.6817C31.6146 22.1603 31.3575 23.7074 30.7162 25.3231C30.2498 26.4981 29.6655 27.4562 28.9632 28.1976C28.2432 28.8979 27.4257 29.3725 26.5108 29.6214C25.5959 29.8703 24.6099 29.87 23.5528 29.6205Z" fill="white"/>
<path d="M85.1164 43.1158C83.6154 43.6101 82.2405 43.7292 80.992 43.475C79.7837 43.2403 78.7366 42.7366 77.8494 41.9638C76.9931 41.1804 76.3822 40.2341 76.0165 39.123C75.8091 38.4924 75.6669 37.8074 75.5899 37.0678C75.5525 36.3478 75.5603 35.7132 75.6118 35.1637C74.2121 35.3583 72.7988 35.2079 71.3712 34.7127C69.9342 34.1874 68.6133 33.3078 67.4085 32.074C66.2038 30.84 65.2853 29.2623 64.653 27.341C64.0408 25.4796 63.7931 23.6647 63.9099 21.8962C64.0468 20.0877 64.5078 18.4054 65.293 16.8493C66.0788 15.2931 67.1437 13.928 68.4871 12.7538C69.8613 11.5698 71.4785 10.6715 73.3398 10.059C75.7718 9.25878 77.9662 9.05232 79.9235 9.43964C81.8714 9.79691 83.5472 10.6429 84.9511 11.9775C86.3549 13.3122 87.408 15.0453 88.109 17.1768C88.2477 17.5971 88.3608 18.0423 88.4491 18.5124C88.557 18.9425 88.6554 19.3926 88.7437 19.8628L90.7644 32.3735C91.0571 34.1737 91.0263 35.7976 90.6708 37.2456C90.3152 38.6933 89.6663 39.9052 88.7229 40.8812C87.7896 41.8868 86.5872 42.6317 85.1164 43.1158ZM83.7238 38.733C84.6548 38.4267 85.2414 37.8844 85.4844 37.1058C85.7671 36.3473 85.8157 35.4328 85.6296 34.3627L84.224 25.6921C83.8216 26.2902 83.4044 26.9433 82.9718 27.6512C82.5297 28.3291 82.122 29.0622 81.7493 29.8503C81.3967 30.5985 81.1034 31.3769 80.8705 32.1856C80.6275 32.9643 80.4699 33.7482 80.397 34.5375C80.3537 35.3169 80.4509 36.067 80.688 36.7876C80.9351 37.5378 81.3078 38.1138 81.8056 38.5156C82.3342 38.9073 82.9736 38.9801 83.7238 38.733ZM76.7851 30.236C77.3303 28.8588 78.1357 27.4127 79.2005 25.8977C80.2862 24.3428 81.7161 22.7741 83.4915 21.1918L83.2865 19.9617C83.2272 19.6817 83.1632 19.4365 83.0945 19.2264C83.0453 18.9764 82.9813 18.7312 82.9019 18.491C82.4871 17.2302 81.8761 16.2334 81.0696 15.5007C80.2631 14.768 79.3001 14.3195 78.1813 14.1553C77.0927 13.9812 75.9028 14.1066 74.6121 14.5314C73.1407 15.0155 71.9585 15.8204 71.0648 16.9464C70.1908 18.0324 69.6361 19.3296 69.4008 20.8379C69.1851 22.3062 69.3493 23.866 69.8921 25.5172C70.2874 26.718 70.8136 27.7094 71.4702 28.4915C72.1469 29.2337 72.9345 29.7564 73.8328 30.0597C74.7312 30.363 75.7155 30.4218 76.7851 30.236Z" fill="white"/>
<path d="M44.0772 34.074C42.4021 34.074 41.0905 33.6158 40.1424 32.6992C39.2258 31.7827 38.7676 30.5659 38.7676 29.0489C38.7676 28.0375 39.0204 27.0103 39.5261 25.9674C40.0634 24.9244 41.0905 23.913 42.6076 22.9333L54.3646 15.3007C55.3443 14.637 56.1345 13.8627 56.735 12.9777C57.3353 12.0928 57.6357 11.1447 57.6357 10.1333C57.6357 8.80589 57.1617 7.77875 56.2135 7.05182C55.2969 6.32489 53.9538 5.96145 52.1839 5.96145H43.8876L44.6935 0.888855H52.658C55.0599 0.888855 57.0354 1.26811 58.5839 2.02663C60.1323 2.78515 61.2861 3.82811 62.0446 5.15552C62.8031 6.45134 63.1824 7.90515 63.1824 9.517C63.1824 11.8558 62.5975 13.8627 61.4283 15.5377C60.2591 17.1812 58.7575 18.6034 56.9246 19.8044L45.9735 26.9155C45.7206 27.0736 45.531 27.2632 45.4046 27.4844C45.2782 27.674 45.215 27.8795 45.215 28.1007C45.215 28.3852 45.3098 28.6222 45.4994 28.8118C45.7206 29.0014 46.0367 29.0963 46.4476 29.0963L61.2387 29.0014L60.575 34.074H44.0772Z" fill="white"/>
</svg>
