<svg width="71" height="63" viewBox="0 0 71 63" fill="none" xmlns="http://www.w3.org/2000/svg">
<path d="M25.0127 61.9976C38.8198 61.9976 50.0127 50.8047 50.0127 36.9976C50.0127 23.1904 38.8198 11.9976 25.0127 11.9976C11.2056 11.9976 0.012695 23.1904 0.0126946 36.9976C0.0126942 50.8047 11.2056 61.9976 25.0127 61.9976Z" fill="#1C1C2E"/>
<path d="M25.0127 12.4976C38.5437 12.4976 49.5127 23.4666 49.5127 36.9976C49.5127 50.5285 38.5437 61.4976 25.0127 61.4976C11.4817 61.4975 0.512694 50.5285 0.512695 36.9976C0.512697 23.4666 11.4817 12.4976 25.0127 12.4976Z" stroke="#644BBF" stroke-opacity="0.3"/>
<path d="M40.9998 30.1631L13.4453 26.0359L9.88472 49.8077L37.4392 53.9349L40.9998 30.1631Z" fill="#E96745"/>
<path opacity="0.6" d="M40.9998 30.1631L13.4453 26.0359L9.88472 49.8077L37.4392 53.9349L40.9998 30.1631Z" fill="white"/>
<path d="M41.6697 25.7141L14.1152 21.5869L13.4489 26.0353L41.0034 30.1625L41.6697 25.7141Z" fill="#E96745"/>
<path d="M18.5399 20.7488C18.5583 20.5589 18.5031 20.369 18.3856 20.2186C18.2682 20.0682 18.0974 19.9686 17.9086 19.9404C17.7198 19.9123 17.5274 19.9577 17.3712 20.0673C17.2149 20.1769 17.1067 20.3424 17.0689 20.5295L16.6319 23.4647C16.6174 23.561 16.6219 23.6593 16.6453 23.7538C16.6687 23.8484 16.7105 23.9374 16.7683 24.0158C16.8261 24.0942 16.8988 24.1604 16.9822 24.2107C17.0656 24.2611 17.1581 24.2944 17.2544 24.309C17.3507 24.3236 17.449 24.319 17.5435 24.2956C17.6381 24.2722 17.7271 24.2304 17.8055 24.1726C17.8839 24.1148 17.9501 24.0421 18.0004 23.9587C18.0507 23.8753 18.0841 23.7828 18.0987 23.6865C18.1351 23.4782 18.5076 20.9547 18.5399 20.7488Z" fill="#E96745"/>
<path d="M23.8403 21.5423C23.8692 21.3476 23.8197 21.1495 23.7026 20.9914C23.5855 20.8333 23.4103 20.7282 23.2157 20.6992C23.0211 20.6702 22.8229 20.7197 22.6648 20.8369C22.5067 20.954 22.4016 21.1291 22.3726 21.3238L21.9323 24.2582C21.9116 24.3573 21.9113 24.4596 21.9315 24.5588C21.9517 24.6581 21.9919 24.7521 22.0497 24.8353C22.1075 24.9185 22.1816 24.989 22.2676 25.0425C22.3535 25.096 22.4495 25.1315 22.5496 25.1466C22.6498 25.1618 22.7519 25.1564 22.8499 25.1307C22.9479 25.105 23.0396 25.0596 23.1194 24.9973C23.1992 24.935 23.2655 24.857 23.3141 24.7682C23.3628 24.6794 23.3928 24.5816 23.4024 24.4808C23.4322 24.2708 23.8104 21.7523 23.8403 21.5423Z" fill="#E96745"/>
<path d="M29.144 22.3366C29.1583 22.2402 29.1535 22.142 29.1299 22.0474C29.1063 21.9529 29.0643 21.864 29.0063 21.7857C28.9483 21.7074 28.8754 21.6413 28.7919 21.5912C28.7084 21.541 28.6158 21.5079 28.5194 21.4935C28.423 21.4792 28.3248 21.4839 28.2303 21.5076C28.1358 21.5312 28.0468 21.5732 27.9685 21.6312C27.8104 21.7483 27.7053 21.9234 27.6763 22.1181L27.2352 25.0558C27.2208 25.1521 27.2256 25.2504 27.2492 25.3449C27.2729 25.4394 27.3149 25.5284 27.3729 25.6066C27.4309 25.6849 27.5037 25.751 27.5872 25.8012C27.6708 25.8513 27.7634 25.8845 27.8597 25.8988C27.9561 25.9132 28.0543 25.9084 28.1489 25.8848C28.2434 25.8612 28.3323 25.8191 28.4106 25.7611C28.4889 25.7032 28.555 25.6303 28.6051 25.5468C28.6553 25.4632 28.6885 25.3706 28.7028 25.2743C28.7342 25.0717 29.1109 22.5457 29.144 22.3366Z" fill="#E96745"/>
<path d="M34.45 23.1307C34.4685 22.9407 34.4133 22.7509 34.2958 22.6004C34.1783 22.45 34.0075 22.3504 33.8188 22.3223C33.63 22.2941 33.4376 22.3395 33.2813 22.4492C33.1251 22.5588 33.0169 22.7242 32.9791 22.9113C32.9398 23.1716 32.5805 25.5896 32.5412 25.8499C32.5269 25.9462 32.5317 26.0445 32.5553 26.139C32.5789 26.2335 32.6209 26.3224 32.6789 26.4007C32.7369 26.479 32.8097 26.5451 32.8933 26.5952C32.9768 26.6454 33.0694 26.6786 33.1658 26.6929C33.2622 26.7073 33.3604 26.7025 33.4549 26.6789C33.5494 26.6552 33.6384 26.6132 33.7167 26.5552C33.795 26.4972 33.8611 26.4244 33.9112 26.3409C33.9613 26.2573 33.9945 26.1647 34.0089 26.0684C34.0246 25.8582 34.4169 23.3398 34.45 23.1307Z" fill="#E96745"/>
<path d="M39.7514 23.9242C39.7657 23.8279 39.761 23.7296 39.7373 23.6351C39.7137 23.5406 39.6717 23.4516 39.6137 23.3733C39.5557 23.2951 39.4829 23.229 39.3993 23.1788C39.3158 23.1287 39.2232 23.0955 39.1268 23.0812C39.0305 23.0668 38.9322 23.0716 38.8377 23.0952C38.7432 23.1188 38.6542 23.1608 38.5759 23.2188C38.4977 23.2768 38.4316 23.3497 38.3814 23.4332C38.3313 23.5168 38.2981 23.6093 38.2838 23.7057L37.8426 26.6434C37.8241 26.8334 37.8794 27.0232 37.9968 27.1736C38.1143 27.3241 38.2851 27.4236 38.4739 27.4518C38.6626 27.48 38.855 27.4345 39.0113 27.3249C39.1675 27.2153 39.2757 27.0499 39.3135 26.8628C39.3425 26.656 39.738 24.1385 39.7514 23.9242Z" fill="#E96745"/>
<g opacity="0.7">
<path d="M18.5379 20.7486C18.5564 20.5586 18.5011 20.3688 18.3837 20.2184C18.2662 20.0679 18.0954 19.9683 17.9067 19.9402C17.7179 19.912 17.5255 19.9575 17.3692 20.0671C17.213 20.1767 17.1048 20.3421 17.067 20.5292L16.63 23.4645C16.6154 23.5608 16.62 23.659 16.6434 23.7536C16.6668 23.8481 16.7086 23.9371 16.7664 24.0155C16.8242 24.0939 16.8968 24.1602 16.9802 24.2105C17.0637 24.2608 17.1562 24.2942 17.2525 24.3088C17.3488 24.3233 17.447 24.3188 17.5416 24.2954C17.6361 24.272 17.7251 24.2302 17.8035 24.1724C17.8819 24.1146 17.9482 24.0419 17.9985 23.9585C18.0488 23.8751 18.0822 23.7826 18.0968 23.6863C18.1331 23.478 18.5057 20.9545 18.5379 20.7486Z" fill="white"/>
<path d="M23.8383 21.542C23.8673 21.3474 23.8178 21.1492 23.7006 20.9911C23.5835 20.833 23.4084 20.7279 23.2137 20.699C23.0191 20.67 22.821 20.7195 22.6629 20.8366C22.5048 20.9538 22.3997 21.1289 22.3707 21.3235L21.9304 24.2579C21.9097 24.357 21.9094 24.4593 21.9296 24.5586C21.9497 24.6578 21.99 24.7519 22.0477 24.8351C22.1055 24.9182 22.1797 24.9887 22.2656 25.0422C22.3516 25.0958 22.4476 25.1312 22.5477 25.1464C22.6478 25.1615 22.75 25.1561 22.8479 25.1304C22.9459 25.1048 23.0376 25.0594 23.1174 24.9971C23.1972 24.9347 23.2635 24.8568 23.3122 24.768C23.3608 24.6792 23.3909 24.5814 23.4004 24.4806C23.4302 24.2705 23.8085 21.752 23.8383 21.542Z" fill="white"/>
<path d="M29.143 22.3363C29.1573 22.24 29.1526 22.1417 29.1289 22.0472C29.1053 21.9527 29.0633 21.8637 29.0053 21.7854C28.9473 21.7072 28.8745 21.6411 28.7909 21.5909C28.7074 21.5408 28.6148 21.5076 28.5184 21.4933C28.4221 21.4789 28.3238 21.4837 28.2293 21.5073C28.1348 21.5309 28.0458 21.5729 27.9675 21.6309C27.8094 21.7481 27.7043 21.9232 27.6754 22.1178L27.2342 25.0555C27.2199 25.1519 27.2246 25.2501 27.2483 25.3446C27.2719 25.4392 27.3139 25.5281 27.3719 25.6064C27.4299 25.6847 27.5027 25.7508 27.5863 25.8009C27.6698 25.851 27.7624 25.8842 27.8588 25.8986C27.9551 25.9129 28.0534 25.9082 28.1479 25.8845C28.2424 25.8609 28.3314 25.8189 28.4096 25.7609C28.4879 25.7029 28.554 25.6301 28.6042 25.5465C28.6543 25.463 28.6875 25.3704 28.7018 25.274C28.7332 25.0714 29.1099 22.5455 29.143 22.3363Z" fill="white"/>
<path d="M34.4481 23.1304C34.4665 22.9404 34.4113 22.7506 34.2938 22.6002C34.1764 22.4498 34.0056 22.3502 33.8168 22.322C33.628 22.2939 33.4356 22.3393 33.2794 22.4489C33.1231 22.5585 33.0149 22.724 32.9772 22.9111C32.9379 23.1713 32.5786 25.5894 32.5393 25.8496C32.5249 25.946 32.5297 26.0442 32.5533 26.1387C32.5769 26.2333 32.619 26.3222 32.677 26.4005C32.7349 26.4788 32.8078 26.5449 32.8913 26.595C32.9749 26.6451 33.0675 26.6783 33.1638 26.6927C33.2602 26.707 33.3584 26.7022 33.453 26.6786C33.5475 26.655 33.6364 26.613 33.7147 26.555C33.793 26.497 33.8591 26.4242 33.9092 26.3406C33.9594 26.2571 33.9926 26.1645 34.0069 26.0681C34.0227 25.858 34.415 23.3396 34.4481 23.1304Z" fill="white"/>
<path d="M39.7494 23.9239C39.7638 23.8275 39.759 23.7292 39.7354 23.6347C39.7118 23.5402 39.6698 23.4513 39.6118 23.373C39.5538 23.2947 39.4809 23.2286 39.3974 23.1785C39.3138 23.1283 39.2212 23.0951 39.1249 23.0808C39.0285 23.0664 38.9303 23.0712 38.8357 23.0948C38.7412 23.1185 38.6523 23.1605 38.574 23.2185C38.4957 23.2765 38.4296 23.3493 38.3795 23.4328C38.3293 23.5164 38.2962 23.609 38.2818 23.7053L37.8406 26.643C37.8222 26.833 37.8774 27.0228 37.9949 27.1733C38.1124 27.3237 38.2831 27.4233 38.4719 27.4514C38.6607 27.4796 38.8531 27.4342 39.0093 27.3245C39.1656 27.2149 39.2738 27.0495 39.3116 26.8624C39.3405 26.6557 39.7361 24.1381 39.7494 23.9239Z" fill="white"/>
</g>
<path d="M38.349 53.3883L10.7946 49.2625L13.4483 26.0365L41.0027 30.1622L38.349 53.3883Z" fill="#E96745"/>
<path opacity="0.9" d="M38.349 53.3883L10.7946 49.2625L13.4483 26.0365L41.0027 30.1622L38.349 53.3883Z" fill="white"/>
<path d="M33.9935 34.9147L20.355 32.8719L20.8232 28.7858L34.4616 30.8285L33.9935 34.9147Z" fill="#E96745"/>
<path opacity="0.6" d="M33.9935 34.9147L20.355 32.8719L20.8232 28.7858L34.4616 30.8285L33.9935 34.9147Z" fill="white"/>
<path d="M17.4525 37.81L13.8115 37.264L14.2299 33.6004L17.8742 34.1473L17.4525 37.81Z" fill="white"/>
<path d="M22.6213 38.5833L18.977 38.0364L19.3978 34.377L23.0389 34.9231L22.6213 38.5833Z" fill="white"/>
<path d="M16.891 42.7498L13.2466 42.2029L13.6675 38.5435L17.3094 39.0863L16.891 42.7498Z" fill="#E96745"/>
<path d="M16.3245 47.6886L12.6835 47.1425L13.1019 43.479L16.743 44.025L16.3245 47.6886Z" fill="#E96745"/>
<path d="M22.0601 43.5229L18.4158 42.976L18.8334 39.3158L22.4777 39.8627L22.0601 43.5229Z" fill="#E96745"/>
<path opacity="0.2" d="M22.0601 43.5229L18.4158 42.976L18.8334 39.3158L22.4777 39.8627L22.0601 43.5229Z" fill="white"/>
<path d="M27.2268 44.2955L23.5849 43.7527L24.0033 40.0892L27.6443 40.6352L27.2268 44.2955Z" fill="#E96745"/>
<path opacity="0.2" d="M27.2268 44.2955L23.5849 43.7527L24.0033 40.0892L27.6443 40.6352L27.2268 44.2955Z" fill="white"/>
<path d="M32.3952 45.0722L28.7509 44.5253L29.1685 40.8651L32.8136 41.4087L32.3952 45.0722Z" fill="#E96745"/>
<path opacity="0.2" d="M32.3952 45.0722L28.7509 44.5253L29.1685 40.8651L32.8136 41.4087L32.3952 45.0722Z" fill="white"/>
<path d="M37.5608 45.8444L33.9197 45.2984L34.3373 41.6381L37.9783 42.1842L37.5608 45.8444Z" fill="#E96745"/>
<path opacity="0.2" d="M37.5608 45.8444L33.9197 45.2984L34.3373 41.6381L37.9783 42.1842L37.5608 45.8444Z" fill="white"/>
<path d="M21.4953 48.462L17.8543 47.916L18.2719 44.2557L21.9129 44.8017L21.4953 48.462Z" fill="#E96745"/>
<path opacity="0.2" d="M21.4953 48.462L17.8543 47.916L18.2719 44.2557L21.9129 44.8017L21.4953 48.462Z" fill="white"/>
<path d="M26.6638 49.2385L23.0195 48.6916L23.4379 45.028L27.0822 45.5749L26.6638 49.2385Z" fill="#E96745"/>
<path opacity="0.2" d="M26.6638 49.2385L23.0195 48.6916L23.4379 45.028L27.0822 45.5749L26.6638 49.2385Z" fill="white"/>
<path d="M31.8304 50.0109L28.1894 49.4649L28.6069 45.8046L32.2488 46.3474L31.8304 50.0109Z" fill="#E96745"/>
<path opacity="0.2" d="M31.8304 50.0109L28.1894 49.4649L28.6069 45.8046L32.2488 46.3474L31.8304 50.0109Z" fill="white"/>
<path d="M27.7935 39.3568L24.1484 38.8132L24.5668 35.1496L28.2111 35.6965L27.7935 39.3568Z" fill="#E96745"/>
<path opacity="0.2" d="M27.7935 39.3568L24.1484 38.8132L24.5668 35.1496L28.2111 35.6965L27.7935 39.3568Z" fill="white"/>
<path d="M32.9583 40.1324L29.3173 39.5864L29.7357 35.9228L33.3767 36.4689L32.9583 40.1324Z" fill="#E96745"/>
<path opacity="0.2" d="M32.9583 40.1324L29.3173 39.5864L29.7357 35.9228L33.3767 36.4689L32.9583 40.1324Z" fill="white"/>
<path d="M38.1275 40.9058L34.4832 40.3589L34.9008 36.6987L38.5451 37.2456L38.1275 40.9058Z" fill="#E96745"/>
<path opacity="0.2" d="M38.1275 40.9058L34.4832 40.3589L34.9008 36.6987L38.5451 37.2456L38.1275 40.9058Z" fill="white"/>
<path d="M36.9986 50.7841L33.3543 50.2372L33.7719 46.577L37.4162 47.1239L36.9986 50.7841Z" fill="white"/>
<path d="M54.8348 20.2405C54.8287 20.4166 54.7545 20.5835 54.6278 20.706C54.5011 20.8284 54.3318 20.8969 54.1556 20.897C53.9795 20.8909 53.8126 20.8167 53.6901 20.69C53.5677 20.5633 53.4992 20.394 53.4991 20.2177L53.5137 19.3611L50.0179 19.2987C50.0118 19.7291 50.0039 20.0852 50.0033 20.1553C50.0203 20.254 50.0154 20.3551 49.9889 20.4516C49.9623 20.5481 49.9148 20.6376 49.8497 20.7136C49.7846 20.7896 49.7035 20.8503 49.6122 20.8914C49.5209 20.9324 49.4217 20.9529 49.3217 20.9511C49.2216 20.9494 49.1231 20.9257 49.0333 20.8815C48.9435 20.8374 48.8645 20.7739 48.802 20.6957C48.7396 20.6175 48.6951 20.5265 48.6719 20.4292C48.6486 20.3318 48.6472 20.2305 48.6676 20.1325L48.6822 19.2759L45.1864 19.2135C45.1803 19.6439 45.1723 20 45.1717 20.0701C45.1395 20.2251 45.0542 20.3639 44.9305 20.4626C44.8069 20.5614 44.6527 20.614 44.4945 20.6113C44.3362 20.6086 44.1839 20.5508 44.0637 20.4478C43.9436 20.3449 43.863 20.2033 43.8361 20.0473L43.8507 19.1907L40.3548 19.1283C40.3487 19.5587 40.3408 19.9148 40.3402 19.9849C40.3573 20.0836 40.3524 20.1847 40.3258 20.2812C40.2993 20.3777 40.2517 20.4672 40.1866 20.5432C40.1215 20.6192 40.0404 20.6799 39.9492 20.721C39.8579 20.762 39.7587 20.7824 39.6586 20.7807C39.5585 20.779 39.4601 20.7553 39.3702 20.7111C39.2804 20.667 39.2014 20.6035 39.139 20.5253C39.0765 20.4471 39.0321 20.3561 39.0088 20.2588C38.9856 20.1614 38.9841 20.0601 39.0045 19.9621L39.0192 19.1055L35.5233 19.0431C35.5139 19.4726 35.5093 19.8296 35.5087 19.8997C35.4781 20.0566 35.3932 20.1977 35.269 20.2982C35.1447 20.3987 34.9891 20.4523 34.8293 20.4494C34.6695 20.4466 34.5158 20.3876 34.3952 20.2828C34.2746 20.1779 34.1947 20.0339 34.1697 19.8761L34.1876 19.0203L31.9714 18.9802L31.5738 41.8212L56.645 42.259L57.0715 19.415L54.8553 19.3749C54.845 19.8077 54.8404 20.1647 54.8348 20.2405Z" fill="#E96745"/>
<path opacity="0.9" d="M54.8348 20.2405C54.8287 20.4166 54.7545 20.5835 54.6278 20.706C54.5011 20.8284 54.3318 20.8969 54.1556 20.897C53.9795 20.8909 53.8126 20.8167 53.6901 20.69C53.5677 20.5633 53.4992 20.394 53.4991 20.2177L53.5137 19.3611L50.0179 19.2987C50.0118 19.7291 50.0039 20.0852 50.0033 20.1553C50.0203 20.254 50.0154 20.3551 49.9889 20.4516C49.9623 20.5481 49.9148 20.6376 49.8497 20.7136C49.7846 20.7896 49.7035 20.8503 49.6122 20.8914C49.5209 20.9324 49.4217 20.9529 49.3217 20.9511C49.2216 20.9494 49.1231 20.9257 49.0333 20.8815C48.9435 20.8374 48.8645 20.7739 48.802 20.6957C48.7396 20.6175 48.6951 20.5265 48.6719 20.4292C48.6486 20.3318 48.6472 20.2305 48.6676 20.1325L48.6822 19.2759L45.1864 19.2135C45.1803 19.6439 45.1723 20 45.1717 20.0701C45.1395 20.2251 45.0542 20.3639 44.9305 20.4626C44.8069 20.5614 44.6527 20.614 44.4945 20.6113C44.3362 20.6086 44.1839 20.5508 44.0637 20.4478C43.9436 20.3449 43.863 20.2033 43.8361 20.0473L43.8507 19.1907L40.3548 19.1283C40.3487 19.5587 40.3408 19.9148 40.3402 19.9849C40.3573 20.0836 40.3524 20.1847 40.3258 20.2812C40.2993 20.3777 40.2517 20.4672 40.1866 20.5432C40.1215 20.6192 40.0404 20.6799 39.9492 20.721C39.8579 20.762 39.7587 20.7824 39.6586 20.7807C39.5585 20.779 39.4601 20.7553 39.3702 20.7111C39.2804 20.667 39.2014 20.6035 39.139 20.5253C39.0765 20.4471 39.0321 20.3561 39.0088 20.2588C38.9856 20.1614 38.9841 20.0601 39.0045 19.9621L39.0192 19.1055L35.5233 19.0431C35.5139 19.4726 35.5093 19.8296 35.5087 19.8997C35.4781 20.0566 35.3932 20.1977 35.269 20.2982C35.1447 20.3987 34.9891 20.4523 34.8293 20.4494C34.6695 20.4466 34.5158 20.3876 34.3952 20.2828C34.2746 20.1779 34.1947 20.0339 34.1697 19.8761L34.1876 19.0203L31.9714 18.9802L31.5738 41.8212L56.645 42.259L57.0715 19.415L54.8553 19.3749C54.845 19.8077 54.8404 20.1647 54.8348 20.2405Z" fill="white"/>
<path d="M51.2284 22.6016L38.8174 22.3853L38.7529 26.0837L51.1639 26.3001L51.2284 22.6016Z" fill="#E96745"/>
<path opacity="0.6" d="M51.2284 22.6016L38.8174 22.3853L38.7529 26.0837L51.1639 26.3001L51.2284 22.6016Z" fill="white"/>
<path d="M36.6386 27.5131L33.3242 27.4553L33.2665 30.7697L36.5808 30.8274L36.6386 27.5131Z" fill="white"/>
<path d="M41.3427 27.595L38.0283 27.5372L37.9706 30.8516L41.2849 30.9094L41.3427 27.595Z" fill="#E96745"/>
<path d="M46.0468 27.6769L42.7324 27.6191L42.6747 30.9335L45.989 30.9913L46.0468 27.6769Z" fill="#E96745"/>
<path d="M50.745 27.7578L47.4307 27.7001L47.3729 31.0144L50.6873 31.0722L50.745 27.7578Z" fill="#E96745"/>
<path d="M55.4413 27.8428L52.127 27.785L52.0692 31.0994L55.3835 31.1572L55.4413 27.8428Z" fill="#E96745"/>
<path d="M36.5585 31.9834L33.2441 31.9257L33.1864 35.24L36.5007 35.2978L36.5585 31.9834Z" fill="#E96745"/>
<path d="M41.2597 32.0685L37.9453 32.0107L37.8875 35.3251L41.2019 35.3829L41.2597 32.0685Z" fill="#E96745"/>
<path d="M45.9628 32.1469L42.6484 32.0891L42.5907 35.4035L45.905 35.4612L45.9628 32.1469Z" fill="#E96745"/>
<path d="M50.6669 32.2321L47.3525 32.1743L47.2948 35.4887L50.6091 35.5464L50.6669 32.2321Z" fill="#E96745"/>
<path d="M55.3681 32.3106L52.0537 32.2528L51.9959 35.5672L55.3103 35.6249L55.3681 32.3106Z" fill="#E96745"/>
<path d="M36.4823 36.4544L33.168 36.3966L33.1102 39.711L36.4246 39.7687L36.4823 36.4544Z" fill="#E96745"/>
<path d="M41.1845 36.5393L37.8701 36.4816L37.8123 39.7959L41.1267 39.8537L41.1845 36.5393Z" fill="#E96745"/>
<path d="M45.8847 36.6205L42.5703 36.5627L42.5125 39.8771L45.8269 39.9349L45.8847 36.6205Z" fill="#E96745"/>
<path opacity="0.2" d="M41.3427 27.595L38.0283 27.5372L37.9706 30.8516L41.2849 30.9094L41.3427 27.595Z" fill="white"/>
<path opacity="0.2" d="M46.0468 27.6769L42.7324 27.6191L42.6747 30.9335L45.989 30.9913L46.0468 27.6769Z" fill="white"/>
<path opacity="0.2" d="M50.745 27.7578L47.4307 27.7001L47.3729 31.0144L50.6873 31.0722L50.745 27.7578Z" fill="white"/>
<path opacity="0.2" d="M55.4413 27.8428L52.127 27.785L52.0692 31.0994L55.3835 31.1572L55.4413 27.8428Z" fill="white"/>
<path opacity="0.2" d="M41.2597 32.0685L37.9453 32.0107L37.8875 35.3251L41.2019 35.3829L41.2597 32.0685Z" fill="white"/>
<path opacity="0.2" d="M45.9628 32.1469L42.6484 32.0891L42.5907 35.4035L45.905 35.4612L45.9628 32.1469Z" fill="white"/>
<path opacity="0.2" d="M50.6669 32.2321L47.3525 32.1743L47.2948 35.4887L50.6091 35.5464L50.6669 32.2321Z" fill="white"/>
<path opacity="0.2" d="M55.3681 32.3106L52.0537 32.2528L51.9959 35.5672L55.3103 35.6249L55.3681 32.3106Z" fill="white"/>
<path opacity="0.2" d="M41.1845 36.5393L37.8701 36.4816L37.8123 39.7959L41.1267 39.8537L41.1845 36.5393Z" fill="white"/>
<path opacity="0.2" d="M45.8847 36.6205L42.5703 36.5627L42.5125 39.8771L45.8269 39.9349L45.8847 36.6205Z" fill="white"/>
<path d="M50.5878 36.7022L47.2734 36.6444L47.2157 39.9588L50.53 40.0165L50.5878 36.7022Z" fill="white"/>
<path d="M55.2919 36.7807L51.9775 36.7229L51.9198 40.0373L55.2341 40.095L55.2919 36.7807Z" fill="white"/>
<path d="M31.999 18.9805L30.7883 42.5065L56.6726 42.2593L31.6006 41.8247L31.999 18.9805Z" fill="#E96745"/>
<path opacity="0.5" d="M31.999 18.9805L30.7883 42.5065L56.6726 42.2593L31.6006 41.8247L31.999 18.9805Z" fill="white"/>
<path d="M56.9521 11.5596C56.9962 11.6488 57.0202 11.7467 57.0223 11.8462C57.0244 11.9458 57.0046 12.0445 56.9644 12.1356C56.9241 12.2267 56.8644 12.3078 56.7893 12.3732C56.7143 12.4386 56.6258 12.4868 56.5301 12.5142C56.4344 12.5417 56.3339 12.5478 56.2356 12.5322C56.1372 12.5165 56.0436 12.4795 55.9611 12.4237C55.8787 12.3678 55.8095 12.2946 55.7585 12.2091C55.7075 12.1236 55.6759 12.0279 55.6659 11.9289L55.4296 11.1056L52.0744 12.0595L52.3075 12.8819C52.3235 13.0404 52.2833 13.1995 52.1939 13.3315C52.1046 13.4634 51.9717 13.5597 51.8186 13.6037C51.6655 13.6477 51.5017 13.6365 51.356 13.572C51.2103 13.5076 51.0918 13.3941 51.0213 13.2512L50.7882 12.4288L47.4414 13.3778C47.5615 13.7952 47.656 14.1358 47.6777 14.2011C47.6937 14.3596 47.6535 14.5187 47.5641 14.6506C47.4748 14.7825 47.342 14.8789 47.1888 14.9229C47.0357 14.9668 46.872 14.9556 46.7262 14.8912C46.5805 14.8268 46.462 14.7133 46.3915 14.5704L46.1552 13.7471L42.7992 14.7043L43.0232 15.5209C43.0673 15.6101 43.0912 15.708 43.0933 15.8075C43.0954 15.907 43.0757 16.0058 43.0354 16.0969C42.9952 16.1879 42.9354 16.2691 42.8604 16.3345C42.7854 16.3999 42.6969 16.4481 42.6012 16.4755C42.5055 16.503 42.4049 16.5091 42.3066 16.4935C42.2083 16.4778 42.1146 16.4408 42.0322 16.385C41.9498 16.3291 41.8806 16.2559 41.8296 16.1704C41.7786 16.0849 41.747 15.9892 41.737 15.8902L41.5048 15.0644L38.1488 16.0216L38.3818 16.8441C38.3978 17.0026 38.3576 17.1617 38.2683 17.2936C38.1789 17.4255 38.0461 17.5219 37.8929 17.5658C37.7398 17.6098 37.5761 17.5986 37.4304 17.5342C37.2846 17.4698 37.1662 17.3562 37.0956 17.2134L36.8626 16.3909L34.7283 16.9972L40.9752 38.9846L65.0953 32.1239L58.8483 10.1366L56.7141 10.7429L56.9521 11.5596Z" fill="#E96745"/>
<path opacity="0.9" d="M56.9521 11.5596C56.9962 11.6488 57.0202 11.7467 57.0223 11.8462C57.0244 11.9458 57.0046 12.0445 56.9644 12.1356C56.9241 12.2267 56.8644 12.3078 56.7893 12.3732C56.7143 12.4386 56.6258 12.4868 56.5301 12.5142C56.4344 12.5417 56.3339 12.5478 56.2356 12.5322C56.1372 12.5165 56.0436 12.4795 55.9611 12.4237C55.8787 12.3678 55.8095 12.2946 55.7585 12.2091C55.7075 12.1236 55.6759 12.0279 55.6659 11.9289L55.4296 11.1056L52.0744 12.0595L52.3075 12.8819C52.3235 13.0404 52.2833 13.1995 52.1939 13.3315C52.1046 13.4634 51.9717 13.5597 51.8186 13.6037C51.6655 13.6477 51.5017 13.6365 51.356 13.572C51.2103 13.5076 51.0918 13.3941 51.0213 13.2512L50.7882 12.4288L47.4414 13.3778C47.5615 13.7952 47.656 14.1358 47.6777 14.2011C47.6937 14.3596 47.6535 14.5187 47.5641 14.6506C47.4748 14.7825 47.342 14.8789 47.1888 14.9229C47.0357 14.9668 46.872 14.9556 46.7262 14.8912C46.5805 14.8268 46.462 14.7133 46.3915 14.5704L46.1552 13.7471L42.7992 14.7043L43.0232 15.5209C43.0673 15.6101 43.0912 15.708 43.0933 15.8075C43.0954 15.907 43.0757 16.0058 43.0354 16.0969C42.9952 16.1879 42.9354 16.2691 42.8604 16.3345C42.7854 16.3999 42.6969 16.4481 42.6012 16.4755C42.5055 16.503 42.4049 16.5091 42.3066 16.4935C42.2083 16.4778 42.1146 16.4408 42.0322 16.385C41.9498 16.3291 41.8806 16.2559 41.8296 16.1704C41.7786 16.0849 41.747 15.9892 41.737 15.8902L41.5048 15.0644L38.1488 16.0216L38.3818 16.8441C38.3978 17.0026 38.3576 17.1617 38.2683 17.2936C38.1789 17.4255 38.0461 17.5219 37.8929 17.5658C37.7398 17.6098 37.5761 17.5986 37.4304 17.5342C37.2846 17.4698 37.1662 17.3562 37.0956 17.2134L36.8626 16.3909L34.7283 16.9972L40.9752 38.9846L65.0953 32.1239L58.8483 10.1366L56.7141 10.7429L56.9521 11.5596Z" fill="white"/>
<path d="M54.1842 14.863L42.2451 18.2598L43.2583 21.8209L55.1974 18.4241L54.1842 14.863Z" fill="#E96745"/>
<path opacity="0.6" d="M54.1842 14.863L42.2451 18.2598L43.2583 21.8209L55.1974 18.4241L54.1842 14.863Z" fill="white"/>
<path d="M41.7148 23.4835L38.5312 24.4054L39.4532 27.589L42.6367 26.667L41.7148 23.4835Z" fill="white"/>
<path d="M46.2236 22.1809L43.04 23.1028L43.962 26.2863L47.1455 25.3644L46.2236 22.1809Z" fill="white"/>
<path d="M50.6952 21.2274L47.5068 22.1345L48.4139 25.3229L51.6023 24.4157L50.6952 21.2274Z" fill="#E96745"/>
<path d="M55.2186 19.9384L52.0303 20.8455L52.9374 24.0338L56.1257 23.1267L55.2186 19.9384Z" fill="#E96745"/>
<path d="M59.7441 18.2761L56.5605 19.198L57.4825 22.3816L60.666 21.4596L59.7441 18.2761Z" fill="#E96745"/>
<path d="M42.9521 27.7692L39.7686 28.6912L40.6905 31.8747L43.874 30.9528L42.9521 27.7692Z" fill="#E96745"/>
<path d="M47.3963 26.8124L44.208 27.7195L45.1151 30.9078L48.3034 30.0007L47.3963 26.8124Z" fill="#E96745"/>
<path d="M51.9677 25.1678L48.7842 26.0897L49.7061 29.2733L52.8897 28.3514L51.9677 25.1678Z" fill="#E96745"/>
<path d="M56.4413 24.2413L53.2529 25.1484L54.16 28.3368L57.3484 27.4297L56.4413 24.2413Z" fill="#E96745"/>
<path d="M60.9647 22.9524L57.7764 23.8595L58.6835 27.0478L61.8718 26.1407L60.9647 22.9524Z" fill="#E96745"/>
<path d="M44.1894 32.0531L41.0059 32.975L41.9278 36.1585L45.1113 35.2366L44.1894 32.0531Z" fill="#E96745"/>
<path d="M48.6972 30.7529L45.5137 31.6748L46.4356 34.8584L49.6192 33.9364L48.6972 30.7529Z" fill="#E96745"/>
<path d="M53.205 29.4504L50.0215 30.3723L50.9434 33.5559L54.127 32.634L53.205 29.4504Z" fill="#E96745"/>
<path opacity="0.2" d="M50.6952 21.2274L47.5068 22.1345L48.4139 25.3229L51.6023 24.4157L50.6952 21.2274Z" fill="white"/>
<path opacity="0.2" d="M55.2186 19.9384L52.0303 20.8455L52.9374 24.0338L56.1257 23.1267L55.2186 19.9384Z" fill="white"/>
<path opacity="0.2" d="M59.7441 18.2761L56.5605 19.198L57.4825 22.3816L60.666 21.4596L59.7441 18.2761Z" fill="white"/>
<path opacity="0.2" d="M47.3963 26.8124L44.208 27.7195L45.1151 30.9078L48.3034 30.0007L47.3963 26.8124Z" fill="white"/>
<path opacity="0.2" d="M51.9677 25.1678L48.7842 26.0897L49.7061 29.2733L52.8897 28.3514L51.9677 25.1678Z" fill="white"/>
<path opacity="0.2" d="M56.4413 24.2413L53.2529 25.1484L54.16 28.3368L57.3484 27.4297L56.4413 24.2413Z" fill="white"/>
<path opacity="0.2" d="M60.9647 22.9524L57.7764 23.8595L58.6835 27.0478L61.8718 26.1407L60.9647 22.9524Z" fill="white"/>
<path opacity="0.2" d="M48.6972 30.7529L45.5137 31.6748L46.4356 34.8584L49.6192 33.9364L48.6972 30.7529Z" fill="white"/>
<path opacity="0.2" d="M53.205 29.4504L50.0215 30.3723L50.9434 33.5559L54.127 32.634L53.205 29.4504Z" fill="white"/>
<path d="M57.7119 28.1502L54.5283 29.0721L55.4502 32.2557L58.6338 31.3338L57.7119 28.1502Z" fill="white"/>
<path d="M62.1922 27.2531L59.0039 28.1602L59.911 31.3485L63.0993 30.4414L62.1922 27.2531Z" fill="white"/>
<path d="M34.7041 16.9977L40.373 39.8609L65.0712 32.1104L40.9544 38.9719L34.7041 16.9977Z" fill="#E96745"/>
<path opacity="0.5" d="M34.7041 16.9977L40.373 39.8609L65.0712 32.1104L40.9544 38.9719L34.7041 16.9977Z" fill="white"/>
</svg>
